<?xml version="1.0" encoding="UTF-8" standalone="no"?>
<svg
   height="21.00015556cm"
   version="1.2"
   viewBox="0 0 559.3733333333333 793.7066666666666"
   width="14.80008611cm"
   id="svg251"
   sodipodi:docname="fig_digital_028.svg"
   inkscape:version="1.3.2 (091e20e, 2023-11-25)"
   xmlns:inkscape="http://www.inkscape.org/namespaces/inkscape"
   xmlns:sodipodi="http://sodipodi.sourceforge.net/DTD/sodipodi-0.dtd"
   xmlns="http://www.w3.org/2000/svg"
   xmlns:svg="http://www.w3.org/2000/svg"
   xmlns:dc="http://purl.org/dc/elements/1.1/"
   xmlns:ns="http://www.w3.org/1999/02/22-rdf-syntax-ns"
   xmlns:ns0="http://creativecommons.org/ns">
  <sodipodi:namedview
     id="namedview251"
     pagecolor="#ffffff"
     bordercolor="#000000"
     borderopacity="0.25"
     inkscape:showpageshadow="2"
     inkscape:pageopacity="0.0"
     inkscape:pagecheckerboard="0"
     inkscape:deskcolor="#d1d1d1"
     inkscape:document-units="cm"
     inkscape:zoom="1.7033117"
     inkscape:cx="279.74915"
     inkscape:cy="396.87392"
     inkscape:current-layer="layer2" />
  <metadata
     id="metadata1">
    <ns:RDF>
      <ns0:Work>
        <dc:format>image/svg+xml</dc:format>
        <dc:source>vpype read --attr stroke 028_brush_2220.svg linesimplify filter --min-length 0.5mm linemerge --tolerance 0.4mm linesort ldelete 1 write --color-mode none 028_brush_2220_processed.svg
</dc:source>
        <dc:date>2023-09-01T19:16:10.493683</dc:date>
      </ns0:Work>
    </ns:RDF>
  </metadata>
  <defs
     id="defs1" />
  <g
     fill="none"
     id="layer2"
     inkscape:groupmode="layer"
     inkscape:label="2"
     stroke="#000000"
     stroke-width="3.6933"
     style="display:inline;stroke:#859599;stroke-opacity:1">
    <polyline
       points="54.48,237.6533 55.24,235.7867 55.9867,236.6933 57.4933,233.92 58.9867,232.7467 61.24,227.2133 62.7467,226.1467 64.24,222.64 65.0,222.7067 68.0,226.28 72.5067,233.04 74.0,235.76 75.5067,236.44 76.2533,238.12 77.0,238.9067 77.76,237.9067 80.0133,241.9867 82.2533,243.8667 86.76,250.3867 92.7733,257.9867 99.52,265.3067 107.7867,272.9067 119.04,282.4267 122.04,284.5333 123.5467,283.16 127.2933,288.3333 131.8,290.9867 134.8,292.2667 140.0667,293.24 141.56,293.4 145.32,292.6533 147.5733,293.2267 148.32,293.0933 149.0667,293.5067 150.5733,292.8 151.32,293.3467 152.0667,293.0267 152.8267,292.08 153.5733,291.8133 155.08,289.3733 156.5733,289.2 157.32,289.9867 158.8267,290.5733 159.5733,291.6667 160.3333,291.7467 163.3333,290.72 166.3333,290.1333 169.3333,290.6 170.84,291.2533 174.5867,294.3467 177.6,296.3733 179.84,297.6533 182.0933,298.3733 190.36,306.0533 197.1067,311.6533 199.36,313.1733 203.8667,315.44 211.3733,320.7333 217.3733,324.2667 224.1333,325.2667 230.1467,327.3067 255.6667,334.7867 262.4133,335.8 263.1733,335.6667 266.92,336.84 274.4267,337.9867 281.9333,339.96 290.9467,343.8667 295.4533,346.2667 302.96,348.72 308.96,351.0933 315.72,354.3333 316.4667,353.96 319.4667,350.4933 324.72,345.4 326.9733,341.8667 328.48,340.24 329.2267,337.0 332.9867,333.6267 334.48,331.6133 335.9867,327.9467 338.9867,327.7733 340.4933,326.44 341.9867,326.9733 344.9867,328.9867 347.24,329.3467 348.7467,329.2533 351.0,328.36 353.2533,326.8267 356.2533,323.56 357.0,323.24 358.5067,306.1467 363.0133,301.24 366.76,298.6267 369.0133,297.52 369.76,298.6 371.2667,307.0133 372.7733,306.08 373.52,306.8667 375.0267,309.9867 376.52,311.1067 377.2667,313.08 378.0267,315.56 378.7733,319.9067 379.52,326.8267 383.28,331.96 384.0267,332.36 384.7733,332.2 385.5333,331.04 386.28,330.7867 387.7867,333.56 389.28,335.2933 390.04,333.9333 390.7867,335.3333 392.28,340.6667 393.7867,343.8 395.2933,345.76 409.5467,358.6933 411.8,360.36 415.56,362.4933 419.3067,364.0267 423.0667,365.04 426.8133,365.2667 431.32,364.6133 435.08,366.7467 435.8267,367.92 437.32,369.3867 438.08,369.8667 438.8267,369.36 439.5733,369.36 441.08,370.9733 447.08,365.48 450.0933,362.24 452.3333,358.12 453.0933,357.5067 453.84,355.8667 454.5867,355.12 455.3467,353.2533 457.6,350.28 459.0933,346.5867 460.6,343.9067 462.0933,342.2133 465.1067,340.4133 466.6,339.1067 468.1067,337.5333 470.36,333.7333 471.8533,334.68 472.6133,335.5467 474.1067,335.5067 480.12,331.9067 482.36,330.1067 484.6133,327.3067 486.12,326.48 488.3733,324.6267 495.1333,320.5333 496.6267,319.16 498.88,319.92 499.6267,319.7467 501.1333,318.2533 501.88,318.3067 503.3867,317.3733 504.88,317.3733 504.88,317.2267 497.3733,320.1333 488.3733,324.5867 479.36,330.1067 472.6133,334.9333 468.8533,338.1067 462.0933,345.0133 457.6,351.16 449.3333,361.3733 446.3333,363.6933 443.3333,365.52 440.3333,366.9067 436.5733,367.9867 433.5733,368.1867 426.8133,366.4533 416.3067,362.2933 409.5467,358.3467 403.5467,353.56 396.7867,346.6 391.5333,339.96 389.28,336.2 381.0267,320.1867 373.52,309.2267 371.2667,307.4533 368.2667,306.6267 364.5067,306.72 363.0133,307.4267 359.2533,311.36 356.2533,313.9867 351.0,321.2533 344.24,327.88 341.24,330.2533 335.9867,333.6133 325.48,343.68 317.9733,349.4667 315.72,350.76 313.4667,351.3333 307.4533,351.48 299.9467,348.56 295.4533,346.0133 287.9467,342.64 280.44,339.9467 272.9333,337.9867 259.4133,335.2533 248.9067,332.7467 224.88,326.0 214.3733,321.9467 209.12,319.2933 201.6133,314.4933 194.8533,309.3733 182.8533,299.6133 176.84,295.4267 173.84,293.7733 169.3333,291.9467 165.5867,291.0 162.5867,290.8667 152.8267,291.6667 147.5733,292.7333 141.56,292.84 136.3067,291.88 131.0533,289.9733 124.2933,286.0667 120.5467,283.3733 114.5333,278.76 104.7733,270.2533 94.2667,259.2 89.0133,252.9467 83.0133,244.64 75.5067,237.1067 70.2533,233.3733 65.0,230.84 59.7333,229.5333 54.48,229.72"
       id="polyline1"
       style="stroke:#859599;stroke-opacity:1" />
    <polyline
       points="67.24,229.0667 65.7467,227.9467 65.0,229.0 63.4933,229.96 61.9867,233.1333 58.9867,235.12 57.4933,242.1733 56.7333,243.9467"
       id="polyline2"
       style="stroke:#859599;stroke-opacity:1" />
    <polyline
       points="56.7333,251.4133 58.24,246.5333 64.24,234.6667 65.7467,237.36 66.4933,237.7467 68.0,237.1467"
       id="polyline3"
       style="stroke:#859599;stroke-opacity:1" />
    <polyline
       points="70.2533,239.24 68.7467,241.8 66.4933,243.72 65.7467,243.4667 64.24,241.9333 62.7467,241.84 61.9867,244.0933 61.24,247.9867 60.4933,249.8133 59.7333,250.0533 57.4933,257.8667 56.7333,258.16"
       id="polyline4"
       style="stroke:#859599;stroke-opacity:1" />
    <polyline
       points="56.7333,260.3867 58.24,259.84 60.4933,255.76 61.24,251.88 61.9867,250.5467 62.7467,246.36 63.4933,244.88 64.24,244.9467 65.7467,246.9867 67.24,246.1333 68.7467,244.52 70.2533,242.2133 71.0,242.2533"
       id="polyline5"
       style="stroke:#859599;stroke-opacity:1" />
    <polyline
       points="71.0,249.2267 69.4933,249.84 68.0,252.1733 66.4933,256.6667"
       id="polyline6"
       style="stroke:#859599;stroke-opacity:1" />
    <polyline
       points="70.2533,257.6 68.7467,261.7467 64.24,267.7733"
       id="polyline7"
       style="stroke:#859599;stroke-opacity:1" />
    <polyline
       points="62.7467,274.4 63.4933,273.4533 65.0,272.4533 65.7467,270.52 67.24,268.7067 69.4933,264.2933 70.2533,263.7333 71.0,263.7333 71.7467,262.8133"
       id="polyline8"
       style="stroke:#859599;stroke-opacity:1" />
    <polyline
       points="75.5067,266.5867 74.7467,268.1733 74.0,268.04 72.5067,269.36 71.0,269.3333 68.7467,272.5067 68.0,274.6 66.4933,276.7733"
       id="polyline9"
       style="stroke:#859599;stroke-opacity:1" />
    <polyline
       points="71.7467,273.2933 74.7467,275.04 75.5067,274.6133 77.0,271.5733 78.5067,266.76"
       id="polyline10"
       style="stroke:#859599;stroke-opacity:1" />
    <polyline
       points="77.76,263.2267 77.0,264.9333 75.5067,270.9733 72.5067,271.5867"
       id="polyline11"
       style="stroke:#859599;stroke-opacity:1" />
    <polyline
       points="73.2533,278.9733 74.0,280.2667 76.2533,282.4667 77.76,281.2933 79.2533,279.6933 80.76,273.0267 82.2533,270.8667 84.5067,279.0533 87.52,277.6267 92.0133,285.7067 94.2667,289.0 95.0267,288.1067 96.52,284.48 98.0267,284.5067 98.7733,285.24 99.52,284.28 100.28,285.2133 99.52,287.32 98.0267,286.7733 96.52,287.44 95.7733,290.0133 94.2667,291.7333 93.52,292.0133 92.0133,287.96 91.2667,286.64 90.52,286.1067 89.0133,281.9467 88.2667,280.8933 87.52,280.3067 86.0133,281.5867 85.2667,282.72 84.5067,286.1467 83.76,284.4533 83.0133,279.4533 82.2533,276.76 81.5067,275.92 80.0133,280.12"
       id="polyline12"
       style="stroke:#859599;stroke-opacity:1" />
    <polyline
       points="73.2533,283.4 77.76,288.6933 80.76,285.7067 81.5067,283.5067 82.2533,282.8533 83.76,291.0 84.5067,291.12 86.0133,290.2 87.52,288.6 88.2667,289.2133 90.52,292.84 93.52,294.4267 95.7733,292.6533 98.0267,289.08"
       id="polyline13"
       style="stroke:#859599;stroke-opacity:1" />
    <polyline
       points="100.28,290.68 98.7733,293.1867 98.0267,293.3867 96.52,294.72 95.7733,294.72 95.0267,295.7067 92.7733,296.7733 89.76,296.1733 87.52,294.7733 86.0133,294.7867 85.2667,294.0667 83.76,293.6533 83.0133,293.1333 82.2533,291.1867 79.2533,292.1067 78.5067,292.08 76.2533,289.2267 74.7467,289.2133 73.2533,286.12 71.0,287.0667"
       id="polyline14"
       style="stroke:#859599;stroke-opacity:1" />
    <polyline
       points="72.5067,296.7467 74.0,297.4267 74.7467,296.9733 76.2533,297.1067 80.76,301.76 83.76,303.2667 92.0133,304.6267 95.0267,302.32 95.7733,302.0933 96.52,302.8 99.52,300.9467 103.28,296.4"
       id="polyline15"
       style="stroke:#859599;stroke-opacity:1" />
    <polyline
       points="102.5333,293.4133 101.0267,296.8133 99.52,298.4267 98.0267,299.0667 96.52,300.3733 95.7733,299.3733 94.2667,300.7067 92.0133,301.8933 87.52,301.0133 85.2667,300.9867 83.76,299.9733 82.2533,299.9467 81.5067,299.44 80.0133,297.3867 79.2533,297.3467"
       id="polyline16"
       style="stroke:#859599;stroke-opacity:1" />
    <polyline
       points="81.5067,295.3733 82.2533,296.1733 83.0133,296.1067 86.0133,298.28 87.52,298.1733 92.7733,299.3867"
       id="polyline17"
       style="stroke:#859599;stroke-opacity:1" />
    <polyline
       points="98.7733,296.1333 99.52,296.0133 101.0267,291.2133 102.5333,290.0 103.28,288.9333 104.7733,288.2133 105.5333,287.44"
       id="polyline18"
       style="stroke:#859599;stroke-opacity:1" />
    <polyline
       points="98.0267,304.5733 96.52,305.5733 95.7733,304.8533 95.0267,305.0267 93.52,305.84 92.7733,306.6933 91.2667,307.0667 86.0133,306.6267 80.0133,303.9333 78.5067,301.96 76.2533,300.4933 74.7467,298.9867 74.0,300.1733 71.7467,298.96 71.0,297.5067"
       id="polyline19"
       style="stroke:#859599;stroke-opacity:1" />
    <polyline
       points="56.7333,288.5333 58.9867,285.56 59.7333,282.2933 60.4933,282.1867 61.24,279.48 63.4933,275.72 64.24,275.88 68.7467,268.7467 71.7467,265.8267 74.7467,260.6267 76.2533,259.76 77.76,257.36 78.5067,257.12"
       id="polyline20"
       style="stroke:#859599;stroke-opacity:1" />
    <polyline
       points="56.7333,311.8667 57.4933,309.1067 59.7333,307.0133 62.7467,303.0933 63.4933,302.5733 64.24,299.4267 65.7467,298.0533 67.24,295.3733 68.7467,298.9333 70.2533,300.7067 74.0,302.7067 75.5067,302.1333 81.5067,307.28 86.0133,309.1733 92.0133,309.32 94.2667,307.7067 95.0267,307.7333 98.7733,306.5867 101.0267,303.2133 103.28,303.0933 105.5333,297.8133 107.7867,295.0 110.7867,294.3733 113.7867,291.4667 115.2933,290.52 116.04,289.12 120.5467,285.8 122.04,285.6 122.8,286.0933 124.2933,288.36 125.0533,287.1733 125.8,286.9867 126.5467,287.3733 128.8,289.7333 131.0533,294.2133 131.8,296.4933 133.3067,299.0667 134.8,303.04 138.56,308.64 139.3067,308.96 140.8133,308.4 142.3067,308.68 143.0667,309.52 144.56,310.1867 146.0667,312.0667 149.0667,313.68 150.5733,312.2267 152.0667,313.2933 153.5733,313.76 155.8267,312.9467 158.08,311.44 159.5733,311.0133 161.08,309.04 164.08,308.52 167.84,318.84 171.5867,326.16 173.0933,327.9867 176.0933,330.5867 176.84,331.9067 179.0933,334.3867 181.3467,336.24 182.8533,336.96 186.6,339.7467 195.6133,342.08 196.36,342.0 198.6133,343.5067 203.8667,348.48 205.3733,348.8 206.8667,349.7333 208.3733,350.8667 209.8667,352.7333 210.6267,353.04 215.88,357.1733 217.3733,358.68 223.3867,363.0133 226.3867,364.6133 227.8933,365.0 230.1467,366.12 230.8933,366.0533 233.1467,366.8133 234.64,366.8 235.4,366.3733 236.1467,367.64 236.1467,367.08 233.1467,366.7067 230.1467,365.9467 224.1333,363.32 218.88,359.7467 210.6267,352.9867 198.6133,344.0533 195.6133,342.3733 186.6,339.4133 182.0933,336.6667 178.3467,333.48 174.5867,329.4667 171.5867,325.2 167.84,318.2933 164.08,312.8667 159.5733,311.28 152.0667,313.0133 150.5733,312.96 144.56,311.0 140.8133,309.0267 137.8133,306.3867 134.0533,300.6133 131.8,296.0133 128.0533,289.7333 125.8,287.4 124.2933,286.4933 122.04,286.1333 120.5467,286.4933 118.2933,287.64 116.04,289.2667 110.04,294.36 100.28,304.3867 94.2667,308.3333 92.0133,309.0 89.0133,309.2667 86.76,309.04 83.76,308.1333 79.2533,305.6933 71.7467,299.88 70.2533,299.0 68.0,298.8 65.7467,299.5467 62.7467,301.96 59.7333,306.0533 56.7333,311.9067"
       id="polyline21"
       style="stroke:#859599;stroke-opacity:1" />
    <polyline
       points="147.5733,305.3067 149.0667,305.5333 150.5733,304.9467 151.32,305.6133 154.32,305.8267"
       id="polyline22"
       style="stroke:#859599;stroke-opacity:1" />
    <polyline
       points="155.08,302.1067 153.5733,303.52 152.8267,303.24 152.0667,303.36 150.5733,302.6267 149.0667,302.9067 148.32,302.6"
       id="polyline23"
       style="stroke:#859599;stroke-opacity:1" />
    <polyline
       points="151.32,300.2667 152.8267,300.4267 153.5733,300.9333 155.08,298.8 155.8267,299.08 158.08,299.1333 159.5733,298.1067"
       id="polyline24"
       style="stroke:#859599;stroke-opacity:1" />
    <polyline
       points="158.08,292.12 155.8267,293.5733 155.08,292.8 154.32,293.84 152.8267,294.3333"
       id="polyline25"
       style="stroke:#859599;stroke-opacity:1" />
    <polyline
       points="152.0667,296.64 152.8267,297.8133 153.5733,297.92 154.32,297.3867 155.08,296.16 157.32,296.7867 159.5733,294.7467 161.08,295.0533 162.5867,299.3333 164.8267,302.8933 165.5867,305.72 166.3333,306.9733 167.84,311.5467"
       id="polyline26"
       style="stroke:#859599;stroke-opacity:1" />
    <polyline
       points="158.8267,307.6 158.08,308.0 156.5733,309.8267 154.32,311.0667 153.5733,311.16"
       id="polyline27"
       style="stroke:#859599;stroke-opacity:1" />
    <polyline
       points="149.0667,308.3333 150.5733,307.44 152.0667,308.44 153.5733,308.8667 155.8267,307.9733 158.8267,304.8533"
       id="polyline28"
       style="stroke:#859599;stroke-opacity:1" />
    <polyline
       points="158.08,373.8933 155.08,377.5333 153.5733,378.4133 152.8267,379.3733"
       id="polyline29"
       style="stroke:#859599;stroke-opacity:1" />
    <polyline
       points="152.0667,382.4267 161.08,373.9733 164.08,373.6267 166.3333,374.52"
       id="polyline30"
       style="stroke:#859599;stroke-opacity:1" />
    <polyline
       points="172.3333,380.28 171.5867,380.5333 170.0933,380.24 167.08,377.4267 163.3333,376.32 162.5867,376.8267 161.08,377.0667 158.08,378.9467 154.32,383.28 151.32,385.6267 149.8133,385.9733"
       id="polyline31"
       style="stroke:#859599;stroke-opacity:1" />
    <polyline
       points="152.8267,387.3067 155.8267,383.9733 156.5733,382.68 158.08,381.28 161.8267,379.84 164.08,379.6 165.5867,380.1733 167.08,380.0267 169.3333,381.5867 171.5867,382.5867 173.84,382.7333"
       id="polyline32"
       style="stroke:#859599;stroke-opacity:1" />
    <polyline
       points="174.5867,384.9867 170.84,384.92 167.84,382.76 164.8267,382.8933 162.5867,382.1733 161.08,383.16 158.8267,383.4267"
       id="polyline33"
       style="stroke:#859599;stroke-opacity:1" />
    <polyline
       points="158.08,386.2933 159.5733,386.5467 161.8267,385.2 163.3333,384.84 164.08,385.32 165.5867,385.5467 167.08,385.4667 167.84,385.0667 170.0933,386.76 171.5867,387.48 174.5867,387.04"
       id="polyline34"
       style="stroke:#859599;stroke-opacity:1" />
    <polyline
       points="176.0933,389.2667 173.84,389.76 170.84,389.5867 167.84,387.92 164.08,388.1467 163.3333,387.3867 161.8267,387.7333 160.3333,389.0533 159.5733,389.2667 158.8267,388.7867 157.32,389.56"
       id="polyline35"
       style="stroke:#859599;stroke-opacity:1" />
    <polyline
       points="152.8267,389.9733 148.32,391.8 147.5733,392.9333"
       id="polyline36"
       style="stroke:#859599;stroke-opacity:1" />
    <polyline
       points="158.8267,395.4667 160.3333,395.5067 163.3333,394.3867 164.8267,394.32 166.3333,394.6667 168.5867,394.48 171.5867,395.2667 174.5867,395.2 177.6,394.6933"
       id="polyline37"
       style="stroke:#859599;stroke-opacity:1" />
    <polyline
       points="179.0933,396.8667 173.84,397.5333 167.84,397.3467 164.08,397.6533 162.5867,397.2533 159.5733,398.2267 158.08,398.36"
       id="polyline38"
       style="stroke:#859599;stroke-opacity:1" />
    <polyline
       points="157.32,401.0667 162.5867,399.92 167.84,400.2933 169.3333,399.76 174.5867,399.9067 176.0933,399.48 176.84,399.64 179.84,399.1067 180.6,399.32"
       id="polyline39"
       style="stroke:#859599;stroke-opacity:1" />
    <polyline
       points="180.6,401.4533 171.5867,402.12 167.08,402.9333 161.8267,402.2533 157.32,403.72"
       id="polyline40"
       style="stroke:#859599;stroke-opacity:1" />
    <polyline
       points="156.5733,405.92 159.5733,405.3867 161.8267,404.6267 167.84,405.4 171.5867,404.3867 173.0933,404.5467 178.3467,403.84 180.6,403.8267"
       id="polyline41"
       style="stroke:#859599;stroke-opacity:1" />
    <polyline
       points="176.84,406.6 182.8533,406.08 185.1067,406.44 187.3467,407.52"
       id="polyline42"
       style="stroke:#859599;stroke-opacity:1" />
    <polyline
       points="186.6,409.7067 185.8533,409.0133 184.3467,408.5333 182.0933,408.3733 179.84,408.8133 176.0933,408.88"
       id="polyline43"
       style="stroke:#859599;stroke-opacity:1" />
    <polyline
       points="170.0933,409.6133 167.84,410.2933 161.08,409.36 159.5733,410.2667 158.08,410.1067 157.32,410.36"
       id="polyline44"
       style="stroke:#859599;stroke-opacity:1" />
    <polyline
       points="152.8267,409.28 154.32,408.2667 157.32,408.16 161.8267,406.9733 162.5867,407.0 163.3333,407.4267 167.84,407.8267 170.0933,407.28"
       id="polyline45"
       style="stroke:#859599;stroke-opacity:1" />
    <polyline
       points="149.0667,409.6267 145.32,411.5867 143.8133,414.0933 140.0667,417.1333 139.3067,417.5333 137.8133,417.5867 134.8,419.36"
       id="polyline46"
       style="stroke:#859599;stroke-opacity:1" />
    <polyline
       points="136.3067,416.32 138.56,415.2667 140.0667,414.9467 141.56,413.9467"
       id="polyline47"
       style="stroke:#859599;stroke-opacity:1" />
    <polyline
       points="131.0533,422.64 126.5467,423.1067 125.0533,423.7733"
       id="polyline48"
       style="stroke:#859599;stroke-opacity:1" />
    <line
       x1="125.0533"
       x2="128.8"
       y1="426.1333"
       y2="425.2667"
       id="line48"
       style="stroke:#859599;stroke-opacity:1" />
    <polyline
       points="128.0533,427.6667 125.8,428.3067 125.0533,428.16 122.04,429.1067"
       id="polyline49"
       style="stroke:#859599;stroke-opacity:1" />
    <polyline
       points="121.2933,414.3467 122.8,413.3867 125.0533,413.1333 128.0533,412.1467 130.3067,410.7067 133.3067,410.7467 136.3067,409.7333 137.8133,408.1733 140.0667,406.9467 141.56,405.24 143.8133,404.0667 145.32,402.84 148.32,399.92 149.0667,399.44 150.5733,399.1067 153.5733,395.8667 154.32,394.56 155.8267,393.7467 158.08,391.28 158.8267,391.72 161.08,391.2133 161.8267,390.4133 162.5867,390.2667 163.3333,390.3067 164.08,390.8 166.3333,390.84 167.84,390.2533 169.3333,390.7333 171.5867,392.16 177.6,391.4667 178.3467,391.6 178.3467,391.5467 174.5867,391.8133 172.3333,391.6667 165.5867,390.52 161.8267,390.68 158.8267,391.3867 155.8267,393.4133 150.5733,398.5867 136.3067,409.3733 121.2933,414.1467"
       id="polyline50"
       style="stroke:#859599;stroke-opacity:1" />
    <polyline
       points="91.2667,416.6 98.0267,416.5467 98.0267,416.5733 91.2667,416.6267"
       id="polyline51"
       style="stroke:#859599;stroke-opacity:1" />
    <polyline
       points="56.7333,425.08 57.4933,425.8533 59.7333,427.1867 61.24,427.36 61.9867,428.0133 65.7467,429.7467 66.4933,429.5333 68.7467,430.4933 71.0,429.92 74.0,428.12 77.0,429.8667 77.76,429.7067 81.5067,430.7333 84.5067,431.08 87.52,431.0533 89.0133,431.5333 89.76,431.2933 91.2667,431.5733 100.28,431.92 105.5333,431.28 110.7867,431.08 111.5333,430.9067 112.28,430.2933 114.5333,430.0533 117.5467,432.76 121.2933,431.5333 122.04,430.96 124.2933,430.96 127.2933,430.2933 129.5467,429.6933 130.3067,429.0133 137.8133,426.7867 143.8133,423.28 144.56,422.2267 150.5733,417.0533 152.0667,414.9733 154.32,413.08 158.08,412.36 158.8267,412.8 161.8267,411.56 162.5867,411.92 167.84,412.6667 171.5867,411.3467 173.84,410.9733 175.3467,411.28 182.0933,410.7067 184.3467,410.92 188.8533,412.8933 192.6133,415.4933 195.6133,418.36 197.1067,418.8533 198.6133,418.5733 200.8667,419.2267 205.3733,418.0667 207.6267,417.92 209.12,418.16 212.88,416.8 214.3733,416.6267 218.1333,414.88 221.88,411.6 224.1333,409.4 231.64,400.4267 236.8933,397.48 237.6533,396.7867 240.6533,395.72 242.9067,393.76 243.6533,393.7067 245.9067,392.6133 249.6533,392.8533 254.16,395.7333 256.4133,396.0267 258.6667,394.96 259.4133,396.5467 260.92,396.5733 263.1733,397.28 265.4267,397.1467 266.1733,397.44 268.4267,397.3067 271.4267,397.6533 272.1733,397.4533 275.1867,398.7067 277.4267,399.2267 280.44,401.2667 283.44,402.2667 288.6933,401.1733 288.6933,399.84 283.44,400.56 280.44,400.3467 268.4267,397.5333 260.92,396.2267 250.4133,393.92 247.4,393.7333 243.6533,394.2 240.6533,395.0133 237.6533,396.7467 230.8933,402.0533 219.6267,412.76 214.3733,416.1333 209.8667,418.0533 204.6133,418.8 202.36,418.64 198.6133,417.8533 185.8533,412.2 182.0933,411.3333 176.84,410.92 161.8267,412.24 158.8267,412.8267 153.5733,415.0533 149.0667,418.1067 143.0667,423.0133 138.56,425.92 135.56,427.4533 129.5467,429.76 122.04,431.2267 116.7867,431.5333 105.5333,431.4 98.0267,431.7467 89.76,431.4667 68.7467,429.0267 56.7333,426.3333"
       id="polyline52"
       style="stroke:#859599;stroke-opacity:1" />
    <polyline
       points="56.7333,453.76 58.9867,457.52 60.4933,458.0133 61.24,457.0667 61.9867,456.8133 62.7467,456.0933 63.4933,456.1867 64.24,457.0667 66.4933,457.7067 67.24,455.8933 68.0,455.92 69.4933,457.32 70.2533,456.7067 71.0,455.5067 72.5067,456.0 72.5067,456.7333 69.4933,456.3333 61.9867,456.9467 58.9867,456.08 56.7333,454.8133"
       id="polyline53"
       style="stroke:#859599;stroke-opacity:1" />
    <polyline
       points="56.7333,456.7733 58.24,459.7467 59.7333,460.5333 60.4933,460.48 61.9867,459.5467 63.4933,459.3333 65.0,459.84 65.7467,460.7067 66.4933,460.0667 67.24,458.2267 69.4933,459.9333 71.0,458.1067 72.5067,458.6933 72.5067,458.9867 70.2533,458.9733 65.0,459.8667 61.9867,460.0667 59.7333,459.5867 56.7333,457.8267"
       id="polyline54"
       style="stroke:#859599;stroke-opacity:1" />
    <polyline
       points="61.24,463.1867 61.9867,462.04 62.7467,461.5067 64.24,461.9333 65.7467,463.3733 67.24,461.1333 68.0,462.0267 71.0,460.6533 71.7467,460.7733 74.0,463.9067"
       id="polyline55"
       style="stroke:#859599;stroke-opacity:1" />
    <polyline
       points="71.0,464.6667 69.4933,464.2533 66.4933,464.1333 63.4933,464.68 61.24,465.4933 61.24,465.8267 61.9867,464.4667 66.4933,464.7733 67.24,463.9067 68.0,464.8667 69.4933,464.68 71.0,463.0267"
       id="polyline56"
       style="stroke:#859599;stroke-opacity:1" />
    <polyline
       points="76.2533,466.92 77.76,469.6533 79.2533,468.6 80.76,469.2533 82.2533,470.4267 85.2667,470.1867 89.76,472.5733 89.76,472.44 86.76,471.1067 79.2533,469.16 76.2533,467.6267"
       id="polyline57"
       style="stroke:#859599;stroke-opacity:1" />
    <polyline
       points="79.2533,465.7733 80.76,466.44 81.5067,467.2667 83.0133,466.8133 84.5067,466.9733 86.76,468.64 87.52,468.5867 89.0133,470.1067"
       id="polyline58"
       style="stroke:#859599;stroke-opacity:1" />
    <polyline
       points="91.2667,475.6267 89.76,475.28 86.0133,473.1867 84.5067,472.72 83.0133,473.4133 82.2533,473.44 81.5067,473.0133 80.0133,471.1733 77.76,472.0133 75.5067,468.7733 74.7467,469.4267 73.2533,467.9867 72.5067,466.3333 71.7467,466.1067 70.2533,466.0133 68.7467,467.76 68.0,467.88 66.4933,467.0667 65.7467,468.36 61.9867,467.5867 60.4933,468.76 59.7333,468.4933 58.9867,467.68 57.4933,465.4133 56.7333,465.6"
       id="polyline59"
       style="stroke:#859599;stroke-opacity:1" />
    <polyline
       points="56.7333,468.7333 59.7333,470.28 62.7467,470.84 64.24,470.7733 69.4933,469.3467 71.0,469.28 73.2533,470.1867 78.5067,474.2267 81.5067,475.3333 86.0133,476.4133 92.0133,478.32 92.0133,478.4667 87.52,476.88 84.5067,475.3867 83.76,475.4133 83.0133,476.3733 82.2533,476.2267 80.0133,474.1333 78.5067,474.7067 77.76,474.4 77.0,473.8533 76.2533,472.2933 75.5067,471.7467 74.7467,472.1333 73.2533,469.8 71.7467,468.9867 69.4933,469.12 68.0,470.8933 67.24,469.8933 66.4933,469.7867 65.7467,470.6533 63.4933,470.68 62.7467,470.2533 61.24,471.3867 59.7333,470.9067 58.24,468.7067 56.7333,468.76"
       id="polyline60"
       style="stroke:#859599;stroke-opacity:1" />
    <polyline
       points="56.7333,471.3867 58.9867,472.6667 60.4933,474.04 61.9867,473.7333 62.7467,472.7467 65.7467,473.4667 67.24,472.64 68.0,473.4133 70.2533,472.0133 71.0,472.0933 74.7467,474.8933 77.0,475.5733 78.5067,477.2133 80.76,477.5467 83.0133,478.84 84.5067,478.2667 87.52,479.6133 92.0133,481.1067 92.0133,481.1333 78.5067,476.7333 74.7467,474.2933 71.0,472.7467 68.0,472.72 65.0,473.2933 61.9867,473.3867 58.9867,472.8667 56.7333,472.0267"
       id="polyline61"
       style="stroke:#859599;stroke-opacity:1" />
    <polyline
       points="57.4933,474.16 58.9867,475.1733 59.7333,476.2133 61.24,476.6 61.9867,476.4133 62.7467,475.48 63.4933,475.48 65.7467,476.3333 66.4933,475.9333 68.0,476.1067 69.4933,475.08 70.2533,474.8933 72.5067,475.6267 74.7467,477.5333 75.5067,477.3867 77.0,477.7333 79.2533,480.12 80.76,480.16 82.2533,481.16 83.76,481.36 84.5067,480.88 89.0133,482.9067 90.52,483.0 94.2667,484.2933 95.0267,485.9467 98.7733,486.1333 99.52,485.92 101.0267,487.2 101.7733,486.3333 103.28,486.2533 106.28,487.2133 109.28,485.5333 113.04,486.7733 114.5333,486.7467 116.04,486.2533 118.2933,484.96 119.04,484.9733 122.04,485.2133 134.8,487.9333 143.0667,488.4267 146.0667,487.6 148.32,485.9867 152.0667,484.12 155.08,483.1867 157.32,482.9067 159.5733,481.5067 164.8267,479.5467 166.3333,478.4 171.5867,475.7467 178.3467,471.3333 182.0933,468.32 185.8533,466.0933 188.1067,466.4533 188.8533,466.2933 191.1067,464.48 195.6133,462.7333 196.36,462.6133 199.36,463.0933 200.12,462.7733 203.12,462.4933 204.6133,461.9333 204.6133,461.36 198.6133,462.5733 188.8533,465.88 182.0933,469.0133 167.08,477.8533 158.8267,482.0533 148.32,486.1733 140.8133,487.6267 131.0533,487.2533 122.04,486.1067 109.28,486.2667 98.7733,485.2933 92.0133,483.92 82.2533,480.2533 74.7467,478.0533 65.7467,476.0267 57.4933,474.84"
       id="polyline62"
       style="stroke:#859599;stroke-opacity:1" />
    <polyline
       points="56.7333,483.2267 58.24,483.1333 59.7333,483.7733 61.9867,484.0533 64.24,483.4133 65.0,483.9733 67.24,483.5867 68.7467,483.8667 70.2533,485.2667 75.5067,487.1067 77.0,486.3867 77.76,486.3333 79.2533,488.6933 80.0133,489.32 81.5067,489.1333 84.5067,491.0133 86.0133,490.4 87.52,491.0933 88.2667,490.9733 90.52,492.28 92.0133,492.7867 92.7733,491.7733 93.52,491.4267 94.2667,491.88 94.2667,492.1867 88.2667,491.5467 86.0133,491.0267 83.0133,489.9867 75.5067,486.5467 69.4933,484.4267 63.4933,483.5733 56.7333,483.48"
       id="polyline63"
       style="stroke:#859599;stroke-opacity:1" />
    <polyline
       points="56.7333,485.6 62.7467,486.4933 63.4933,485.9333 65.7467,486.44 67.24,486.0133 68.0,486.3867 68.7467,486.3067 70.2533,488.1467 72.5067,488.8533 73.2533,488.3467 74.0,488.2933 75.5067,489.5867 77.0,489.0 77.76,489.4 79.2533,491.08 80.76,492.0267 81.5067,492.0267 85.2667,493.8533 86.0133,493.36 89.76,493.88 91.2667,495.92 92.0133,495.68 92.7733,493.8933 95.0267,494.9067 95.7733,494.7067 95.7733,494.7867 90.52,494.48 83.0133,492.7867 76.2533,489.2933 72.5067,488.6267 66.4933,486.3067 62.7467,485.8667 56.7333,485.88"
       id="polyline64"
       style="stroke:#859599;stroke-opacity:1" />
    <polyline
       points="58.9867,488.3333 61.24,488.92 62.7467,488.96 63.4933,488.5867 65.7467,489.0 67.24,488.6 68.0,488.7733"
       id="polyline65"
       style="stroke:#859599;stroke-opacity:1" />
    <polyline
       points="67.24,490.7067 65.7467,491.6267 64.24,491.16 59.7333,491.1333 58.9867,490.7733 57.4933,490.68 56.7333,490.8533"
       id="polyline66"
       style="stroke:#859599;stroke-opacity:1" />
    <polyline
       points="56.7333,493.04 58.24,493.0 60.4933,493.68 63.4933,493.4 65.7467,493.8933 67.24,493.1467 68.7467,494.12"
       id="polyline67"
       style="stroke:#859599;stroke-opacity:1" />
    <polyline
       points="68.7467,496.5067 67.24,495.5867 66.4933,496.3067 65.0,496.2933 64.24,495.88 62.7467,496.12 59.7333,495.84 58.24,495.4133"
       id="polyline68"
       style="stroke:#859599;stroke-opacity:1" />
    <polyline
       points="58.9867,498.0533 66.4933,498.9867 67.24,498.0267 69.4933,499.4267"
       id="polyline69"
       style="stroke:#859599;stroke-opacity:1" />
    <polyline
       points="74.7467,497.2533 75.5067,497.0933 76.2533,497.72 79.2533,498.5333 81.5067,499.4667 82.2533,500.3867 83.76,500.48 86.0133,501.7467 89.0133,501.2267 90.52,501.7067 91.2667,502.88 92.0133,502.9733 93.52,501.7733 95.0267,503.16 98.0267,503.0533 100.28,504.0 101.0267,503.8533"
       id="polyline70"
       style="stroke:#859599;stroke-opacity:1" />
    <polyline
       points="101.7733,500.56 101.0267,501.4933 99.52,501.72 97.2667,500.2267 95.0267,500.16 92.7733,499.0267 91.2667,500.5467 90.52,499.4133 89.0133,498.6667 86.0133,499.1067 82.2533,497.6933 79.2533,496.2 77.76,495.0933 76.2533,494.9333 75.5067,494.4 74.0,494.3733"
       id="polyline71"
       style="stroke:#859599;stroke-opacity:1" />
    <polyline
       points="73.2533,491.76 74.0,491.16 74.7467,491.2133 75.5067,491.9333 76.2533,492.1733 77.0,491.96 77.76,492.1333 80.76,494.32 85.2667,496.4667 89.0133,496.1867 91.2667,498.36 93.52,496.4933 95.0267,497.56"
       id="polyline72"
       style="stroke:#859599;stroke-opacity:1" />
    <polyline
       points="101.0267,493.6267 101.7733,492.0533 105.5333,493.7733 107.7867,491.4667 108.5333,491.48 110.04,491.9067 111.5333,493.6267 112.28,494.0533 112.28,492.7733 101.0267,492.7467"
       id="polyline73"
       style="stroke:#859599;stroke-opacity:1" />
    <polyline
       points="98.0267,484.36 98.7733,483.72 99.52,483.9733 100.28,483.4933 102.5333,483.6 105.5333,484.6133 105.5333,484.28 102.5333,484.1467 98.0267,483.4"
       id="polyline74"
       style="stroke:#859599;stroke-opacity:1" />
    <polyline
       points="101.7733,481.2133 107.0267,481.5733 113.04,481.4933 113.04,482.2667 112.28,482.12 110.7867,480.8533 109.28,480.72 107.0267,482.2933 104.7733,481.9067 103.28,481.2933 101.7733,481.1733"
       id="polyline75"
       style="stroke:#859599;stroke-opacity:1" />
    <polyline
       points="98.0267,477.2933 99.52,476.84 101.7733,476.8 103.28,475.96 104.7733,477.16 107.0267,477.56 107.7867,477.5467 110.7867,476.44 112.28,477.08 115.2933,477.72 115.2933,477.5467 111.5333,476.96 107.0267,477.3067 103.28,476.7467 98.0267,476.5867"
       id="polyline76"
       style="stroke:#859599;stroke-opacity:1" />
    <polyline
       points="100.28,474.6 103.28,473.5867 105.5333,474.9067 106.28,474.8133 107.0267,475.12 110.7867,474.0267 113.7867,474.6933"
       id="polyline77"
       style="stroke:#859599;stroke-opacity:1" />
    <line
       x1="121.2933"
       x2="128.8"
       y1="474.28"
       y2="476.36"
       id="line77"
       style="stroke:#859599;stroke-opacity:1" />
    <polyline
       points="120.5467,480.92 122.8,480.84 125.0533,481.6933 125.0533,481.2667 120.5467,481.2533"
       id="polyline78"
       style="stroke:#859599;stroke-opacity:1" />
    <polyline
       points="112.28,484.3067 117.5467,483.6267 122.8,482.56 122.8,483.0 121.2933,483.1867 117.5467,482.8533 115.2933,484.4 112.28,484.48"
       id="polyline79"
       style="stroke:#859599;stroke-opacity:1" />
    <polyline
       points="108.5333,498.1867 109.28,498.28 112.28,501.08 113.7867,500.8667"
       id="polyline80"
       style="stroke:#859599;stroke-opacity:1" />
    <polyline
       points="115.2933,504.9067 111.5333,507.36 110.04,505.9333"
       id="polyline81"
       style="stroke:#859599;stroke-opacity:1" />
    <polyline
       points="98.0267,505.8667 95.0267,505.92 93.52,504.8267 92.7733,505.6933 91.2667,505.0533 90.52,504.24 87.52,504.3733 85.2667,503.3333"
       id="polyline82"
       style="stroke:#859599;stroke-opacity:1" />
    <polyline
       points="86.0133,506.28 87.52,506.9867 89.76,507.12 92.0133,508.44 93.52,507.9733 94.2667,508.5733 98.0267,508.6533"
       id="polyline83"
       style="stroke:#859599;stroke-opacity:1" />
    <polyline
       points="98.0267,526.2667 100.28,525.8667 101.0267,525.36 105.5333,525.16 107.0267,526.2"
       id="polyline84"
       style="stroke:#859599;stroke-opacity:1" />
    <polyline
       points="102.5333,530.0267 99.52,530.2133 96.52,530.9067"
       id="polyline85"
       style="stroke:#859599;stroke-opacity:1" />
    <polyline
       points="97.2667,528.6533 101.0267,527.7333 104.0267,527.4533 106.28,527.8133 107.0267,528.9067 107.0267,527.9867 97.2667,527.7867"
       id="polyline86"
       style="stroke:#859599;stroke-opacity:1" />
    <polyline
       points="96.52,533.36 98.7733,532.5333 102.5333,532.16"
       id="polyline87"
       style="stroke:#859599;stroke-opacity:1" />
    <polyline
       points="104.7733,534.3067 98.7733,534.8533 95.7733,535.7733"
       id="polyline88"
       style="stroke:#859599;stroke-opacity:1" />
    <polyline
       points="81.5067,532.16 79.2533,533.4667 77.76,532.8667 76.2533,532.8267 75.5067,532.4933"
       id="polyline89"
       style="stroke:#859599;stroke-opacity:1" />
    <polyline
       points="74.7467,530.16 80.0133,531.0133 82.2533,529.6267"
       id="polyline90"
       style="stroke:#859599;stroke-opacity:1" />
    <polyline
       points="86.0133,524.24 85.2667,523.6533 82.2533,522.76 81.5067,522.8267 80.0133,524.0667 74.7467,522.8267 73.2533,522.72 72.5067,523.2533"
       id="polyline91"
       style="stroke:#859599;stroke-opacity:1" />
    <polyline
       points="73.2533,525.1067 77.0,525.72 80.0133,526.6933 82.2533,525.0 84.5067,525.7867 84.5067,526.12 73.2533,525.2933"
       id="polyline92"
       style="stroke:#859599;stroke-opacity:1" />
    <polyline
       points="68.7467,525.4133 65.0,525.2133 62.7467,524.5067 61.9867,523.8533 56.7333,522.8"
       id="polyline93"
       style="stroke:#859599;stroke-opacity:1" />
    <polyline
       points="57.4933,525.64 59.7333,526.08 61.24,526.84 63.4933,527.0 64.24,527.6667 65.0,527.4133 66.4933,527.96"
       id="polyline94"
       style="stroke:#859599;stroke-opacity:1" />
    <polyline
       points="69.4933,530.7067 68.7467,530.4533 66.4933,530.4533 63.4933,529.4133 61.24,529.6 60.4933,528.88 58.24,528.04"
       id="polyline95"
       style="stroke:#859599;stroke-opacity:1" />
    <polyline
       points="56.7333,530.04 69.4933,533.88 77.0,535.52 83.76,536.5467 91.2667,537.28 98.0267,537.3733 106.28,536.28 111.5333,534.6667 116.7867,532.24 123.5467,527.9067 135.56,518.4133 140.8133,515.36 143.8133,514.12 149.8133,512.76 167.84,512.84 175.3467,512.1333 180.6,511.1067 186.6,509.2133 194.1067,505.7467 200.12,502.4533 205.3733,500.0667 210.6267,498.0933 218.88,496.4667 224.88,495.9333 233.8933,493.9333 239.1467,491.9333 245.16,489.1067 265.4267,478.1867 275.1867,471.8 289.44,460.9867 299.9467,453.8267 306.7067,449.8267 317.2133,444.1867 325.48,440.3733 328.48,439.36 335.9867,437.8667 339.7333,437.9067 346.4933,438.88 353.2533,440.9467 358.5067,443.3067 365.2667,445.76 372.7733,447.3867 379.52,447.9467 386.28,447.5467 393.7867,446.2667 408.8,442.3467 419.3067,439.12 426.8133,435.2667 432.8267,430.76 441.8267,421.6 448.5867,413.4933 455.3467,407.5867 461.3467,403.6267 473.36,397.3467 480.8667,392.8133 493.6267,384.2667 502.64,377.5467 502.64,376.48 501.1333,378.2933 492.88,385.4267 483.8667,391.0133 479.36,394.4933 478.6133,394.4933 475.6133,397.36 470.36,398.68 463.6,401.6 461.3467,402.84 459.0933,404.56 458.3467,405.7467 454.5867,409.6133 452.3333,410.2533 447.08,412.8267 445.5867,415.68 442.5867,418.2533 438.8267,423.28 438.08,423.7333 435.8267,429.6 433.5733,432.6533 430.5733,435.0533 428.32,436.0 417.0533,437.8667 411.0533,440.3733 408.8,442.1333 406.5467,443.2 402.04,444.6667 396.04,445.8 395.2933,445.6933 393.04,446.4267 384.7733,447.12 375.7733,448.5733 370.52,447.8267 368.2667,446.2533 364.5067,444.5867 360.0133,443.56 357.0,442.5333 353.2533,442.1867 351.7467,441.72 348.7467,439.9867 345.7467,437.4667 342.7467,436.3067 339.7333,436.1333 335.9867,437.1333 332.9867,437.5467 327.7333,440.4533 324.72,441.16 323.2267,441.8667 322.4667,441.7467 318.72,443.24 314.96,445.3467 312.72,446.1467 303.7067,452.36 302.96,452.3733 298.4533,454.6 293.2,458.1333 290.2,459.0133 284.9333,464.7733 282.6933,466.8133 281.9333,467.0933 278.9333,469.48 276.68,469.96 272.1733,474.4 264.6667,478.4667 262.4133,480.2533 258.6667,481.56 254.9067,483.84 253.4133,485.0933 242.1467,489.96 236.8933,493.6667 227.8933,495.2533 224.88,496.6667 222.64,496.3067 218.88,496.4 216.6267,496.8933 215.1333,496.36 213.6267,497.12 210.6267,496.9733 209.8667,497.5333 203.8667,499.96 202.36,500.9733 200.8667,502.6533 194.1067,507.24 187.3467,509.0267 185.8533,509.76 180.6,511.2133 163.3333,513.4533 162.5867,513.2 155.8267,513.5867 148.32,512.84 140.0667,514.0133 136.3067,516.3467 135.56,517.8533 134.8,518.16 133.3067,520.7067 128.8,524.5867 127.2933,525.4933 126.5467,526.8933 123.5467,529.5067 122.04,530.32 116.7867,531.6133 112.28,533.48 110.7867,534.36 110.04,535.2533 109.28,535.5067 107.0267,537.5067 106.28,537.52 105.5333,536.7333 104.7733,536.6133 101.0267,536.6267 100.28,537.0533 98.0267,537.2 95.0267,538.0 92.7733,539.2933 92.0133,538.24 90.52,537.0667 88.2667,536.6133 85.2667,535.1467 83.76,534.9733 79.2533,535.96 74.7467,534.9467 73.2533,534.8933 71.0,534.0 68.0,533.2667 67.24,533.3333 64.24,531.8267 61.9867,531.96 59.7333,530.88 56.7333,530.84"
       id="polyline96"
       style="stroke:#859599;stroke-opacity:1" />
    <polyline
       points="56.7333,519.5733 60.4933,521.0133 60.4933,521.2933 56.7333,519.4667"
       id="polyline97"
       style="stroke:#859599;stroke-opacity:1" />
    <polyline
       points="71.7467,518.2 74.0,517.7733 80.76,518.7467 81.5067,518.0133 82.2533,517.7467"
       id="polyline98"
       style="stroke:#859599;stroke-opacity:1" />
    <polyline
       points="83.76,520.72 83.0133,520.3333 80.0133,522.0133 77.76,520.68 74.0,520.1867"
       id="polyline99"
       style="stroke:#859599;stroke-opacity:1" />
    <polyline
       points="57.4933,500.08 58.9867,500.5067 62.7467,500.5733 65.7467,501.6133 68.0,500.7733 69.4933,501.6 71.7467,501.84 74.7467,505.36 75.5067,504.92 77.76,505.72 79.2533,505.72 80.76,506.28 82.2533,506.2 83.0133,506.7867 83.76,507.9467 86.0133,508.48 86.76,509.28 87.52,509.6133 94.2667,511.36 98.7733,511.0133 101.0267,510.52 103.28,509.5733 106.28,507.76 108.5333,507.52 109.28,507.7067 112.28,510.08 113.04,509.6 113.7867,509.5333 116.7867,506.12 121.2933,506.0533 123.5467,505.52 125.8,505.3867 127.2933,505.5733 128.8,506.1733 129.5467,505.9467 129.5467,505.12 106.28,509.8533 98.7733,510.6533 95.0267,510.64 91.2667,510.12 86.76,509.0667 77.76,505.2933 72.5067,503.4667 65.0,501.2533 57.4933,499.6133"
       id="polyline100"
       style="stroke:#859599;stroke-opacity:1" />
    <polyline
       points="79.2533,463.0 80.0133,462.9867 80.76,464.1067 81.5067,464.6267 83.0133,463.9467 85.2667,464.8133 89.0133,467.3067 89.0133,467.1067 79.2533,462.9333"
       id="polyline101"
       style="stroke:#859599;stroke-opacity:1" />
    <polyline
       points="78.5067,461.12 80.76,461.3467 82.2533,460.7867 85.2667,462.3467 87.52,464.1067 89.0133,464.76 89.0133,464.68 87.52,463.7867 78.5067,459.8933"
       id="polyline102"
       style="stroke:#859599;stroke-opacity:1" />
    <polyline
       points="97.2667,469.2133 99.52,469.84 110.7867,469.8667 116.04,470.2133 121.2933,469.68 124.2933,470.3733 127.2933,471.8 127.2933,471.6133 120.5467,469.2533 119.04,469.3333 116.04,471.0267 115.2933,470.7867 114.5333,470.0 113.04,470.0667 112.28,469.4667 111.5333,469.4267 107.0267,470.5067 104.7733,469.92 104.0267,469.44 102.5333,469.24 97.2667,470.3867 97.2667,471.7867 100.28,472.1733 110.04,471.7867 115.2933,472.7733 120.5467,472.04 124.2933,472.5333 124.2933,472.5333 120.5467,471.6667 119.04,471.6267 116.04,473.2133 111.5333,471.6933 110.7867,471.6533 110.04,472.1333 105.5333,472.5067 103.28,471.2667 97.2667,472.6933"
       id="polyline103"
       style="stroke:#859599;stroke-opacity:1" />
    <polyline
       points="146.8133,484.0667 151.32,482.1867 154.32,480.5733 154.32,481.08 151.32,481.6933 146.8133,484.4667"
       id="polyline104"
       style="stroke:#859599;stroke-opacity:1" />
    <polyline
       points="147.5733,481.4533 149.8133,480.2533 150.5733,479.4 156.5733,478.5733 156.5733,478.1867 147.5733,480.7467"
       id="polyline105"
       style="stroke:#859599;stroke-opacity:1" />
    <polyline
       points="152.8267,474.6133 158.08,473.4 158.08,473.6 157.32,473.44 152.8267,474.6"
       id="polyline106"
       style="stroke:#859599;stroke-opacity:1" />
    <line
       x1="152.8267"
       x2="158.8267"
       y1="471.8533"
       y2="470.8"
       id="line106"
       style="stroke:#859599;stroke-opacity:1" />
    <polyline
       points="159.5733,466.6267 163.3333,465.0667 163.3333,465.08 161.8267,465.9333 159.5733,466.08"
       id="polyline107"
       style="stroke:#859599;stroke-opacity:1" />
    <polyline
       points="151.32,470.0533 158.8267,468.4667 158.8267,468.3733 155.8267,469.2533 152.8267,469.5867 151.32,470.2667"
       id="polyline108"
       style="stroke:#859599;stroke-opacity:1" />
    <polyline
       points="171.5867,467.12 180.6,460.96 180.6,460.96 171.5867,467.04"
       id="polyline109"
       style="stroke:#859599;stroke-opacity:1" />
    <polyline
       points="188.1067,483.5067 190.36,483.2133 192.6133,482.0533 194.1067,481.6267 196.36,480.2933"
       id="polyline110"
       style="stroke:#859599;stroke-opacity:1" />
    <polyline
       points="216.6267,460.36 219.6267,460.08 224.1333,460.2533 232.3867,459.9867 237.6533,458.28 243.6533,454.9867 246.6533,452.7867 248.9067,450.6267 274.4267,423.1467 281.9333,416.5867"
       id="polyline111"
       style="stroke:#859599;stroke-opacity:1" />
    <polyline
       points="281.9333,418.5733 278.1867,419.8933 276.68,421.3733 275.1867,422.1067 270.68,425.2667 262.4133,434.8667 259.4133,437.6667 255.6667,442.7733 254.9067,443.4133 251.16,449.9733 249.6533,451.3467 246.6533,453.0667 242.9067,456.1467 237.6533,458.92 232.3867,460.5467 225.64,459.7067 224.1333,459.9067 221.1333,459.7067 219.6267,458.7867 218.1333,458.8933 216.6267,457.5733"
       id="polyline112"
       style="stroke:#859599;stroke-opacity:1" />
    <polyline
       points="230.1467,457.0 236.1467,454.4133 236.1467,454.88 233.8933,455.4933 232.3867,456.6267 230.1467,456.6267"
       id="polyline113"
       style="stroke:#859599;stroke-opacity:1" />
    <polyline
       points="231.64,454.3467 235.4,452.6533 237.6533,452.2133"
       id="polyline114"
       style="stroke:#859599;stroke-opacity:1" />
    <polyline
       points="237.6533,447.7067 233.8933,448.4933 232.3867,449.8667"
       id="polyline115"
       style="stroke:#859599;stroke-opacity:1" />
    <polyline
       points="231.64,451.7867 237.6533,449.8667 237.6533,449.9333 234.64,450.64 233.1467,451.5067 231.64,451.96"
       id="polyline116"
       style="stroke:#859599;stroke-opacity:1" />
    <polyline
       points="257.16,448.0667 259.4133,443.4267 261.6667,441.1467 262.4133,439.9467 266.1733,436.0 266.92,435.6533 268.4267,433.6667 271.4267,431.4533 272.9333,429.7467 273.68,429.4 273.68,429.0933 266.92,435.3733 263.1733,439.3067 257.16,447.0667"
       id="polyline117"
       style="stroke:#859599;stroke-opacity:1" />
    <polyline
       points="258.6667,447.56 263.1733,441.4933 266.1733,438.24 273.68,431.96 283.44,422.2533 283.44,422.2933 280.44,424.72 276.68,428.8 275.1867,431.08 273.68,431.7333 272.1733,432.9067 270.68,434.7467 269.1733,435.6133 268.4267,435.6267 267.68,437.0133 264.6667,439.48 263.1733,441.76 261.6667,443.1067 258.6667,447.7333 260.1733,447.68 262.4133,444.9733 263.1733,443.5067 269.1733,437.9867 270.68,437.1333 272.1733,435.2133 275.9333,432.8667 277.4267,430.6"
       id="polyline118"
       style="stroke:#859599;stroke-opacity:1" />
    <polyline
       points="275.1867,435.92 271.4267,438.3467 269.92,440.04"
       id="polyline119"
       style="stroke:#859599;stroke-opacity:1" />
    <polyline
       points="269.1733,447.8 272.1733,444.1467 273.68,443.6267 275.1867,442.2933 276.68,440.2267 281.1867,436.16 281.9333,434.8667 284.1867,432.32 285.6933,431.4533 287.1867,429.9467"
       id="polyline120"
       style="stroke:#859599;stroke-opacity:1" />
    <polyline
       points="285.6933,428.68 289.44,426.0533 290.9467,424.6 292.44,423.9867 294.6933,424.6933 296.2,424.0267"
       id="polyline121"
       style="stroke:#859599;stroke-opacity:1" />
    <polyline
       points="296.2,421.7467 295.4533,422.2133 293.9467,422.04 292.44,421.4533 287.1867,425.36"
       id="polyline122"
       style="stroke:#859599;stroke-opacity:1" />
    <polyline
       points="287.9467,422.1333 289.44,421.3867 292.44,419.0667 295.4533,419.5733 297.7067,418.32"
       id="polyline123"
       style="stroke:#859599;stroke-opacity:1" />
    <polyline
       points="298.4533,415.1333 296.9467,415.9467 291.6933,417.36 289.44,418.7467"
       id="polyline124"
       style="stroke:#859599;stroke-opacity:1" />
    <polyline
       points="290.9467,416.2267 293.9467,414.76 299.2,411.56 299.2,411.9067 296.9467,413.0667 295.4533,414.5467 293.9467,414.48 291.6933,415.1867 290.9467,415.7733"
       id="polyline125"
       style="stroke:#859599;stroke-opacity:1" />
    <polyline
       points="292.44,409.4267 293.2,408.5333 293.9467,406.3333 295.4533,404.52 296.9467,403.9333 299.2,401.8933 299.9467,400.5867 303.7067,398.04 307.4533,396.48 311.96,396.2 314.96,397.12 318.72,397.3467 322.4667,398.4133 326.9733,397.0133 328.48,396.8667 331.48,395.92 332.2267,395.4133 335.24,394.88"
       id="polyline126"
       style="stroke:#859599;stroke-opacity:1" />
    <polyline
       points="335.24,397.84 329.2267,396.5467 322.4667,395.9867 315.72,396.3467 308.96,397.5067 305.96,398.4133 301.4533,400.64 292.44,406.7467"
       id="polyline127"
       style="stroke:#859599;stroke-opacity:1" />
    <polyline
       points="305.96,406.36 311.2133,405.5067 313.4667,405.8 313.4667,404.9733 308.96,405.96 305.96,407.4267"
       id="polyline128"
       style="stroke:#859599;stroke-opacity:1" />
    <polyline
       points="307.4533,393.8267 310.4667,393.2133 311.2133,393.88 312.72,393.3333 314.96,394.52 316.4667,394.52 322.4667,395.88 322.4667,395.9467 313.4667,393.8933 310.4667,393.5867 307.4533,393.6667"
       id="polyline129"
       style="stroke:#859599;stroke-opacity:1" />
    <polyline
       points="313.4667,391.6267 319.4667,392.8 319.4667,392.92 313.4667,391.4933"
       id="polyline130"
       style="stroke:#859599;stroke-opacity:1" />
    <polyline
       points="312.72,389.0533 315.72,389.1867 318.72,390.4933"
       id="polyline131"
       style="stroke:#859599;stroke-opacity:1" />
    <polyline
       points="325.48,384.24 331.48,381.5467 332.9867,381.28"
       id="polyline132"
       style="stroke:#859599;stroke-opacity:1" />
    <line
       x1="332.9867"
       x2="325.48"
       y1="383.4533"
       y2="382.0933"
       id="line132"
       style="stroke:#859599;stroke-opacity:1" />
    <polyline
       points="319.4667,376.88 320.9733,375.3467 321.72,375.0 328.48,367.8667 330.7333,362.08 332.2267,361.1467 334.48,356.36 337.48,359.0667 341.24,361.1467 341.9867,361.2667 347.24,360.0267 349.4933,358.6267 351.7467,357.84 354.0,357.6133 355.5067,356.8933 357.0,355.84 359.2533,352.6933 360.0133,352.2667 361.5067,352.6 362.2533,353.7867 363.0133,354.0933 364.5067,353.6133 368.2667,354.3867 376.52,352.0933 380.28,350.16 383.28,347.5333 385.5333,346.6933 387.7867,348.72 393.7867,353.0667 395.2933,355.0 396.7867,355.5867 398.2933,356.9067 399.7867,361.24 402.04,364.4267 403.5467,364.96 405.0533,367.64 409.5467,371.6933 413.3067,373.2667 414.0533,374.0133 418.56,375.4933 423.0667,375.8933 424.56,376.64 426.0667,376.7733 428.32,376.96 430.5733,376.5467 430.5733,376.9467 426.0667,376.92 421.56,376.1067 417.8133,374.8 414.0533,372.92 409.5467,369.9733 406.5467,367.4267 401.2933,362.3067 398.2933,358.5733 392.28,352.6133 387.7867,350.48 382.5333,349.64 372.0133,352.36 358.5067,355.04 351.7467,357.3333 346.4933,358.1733 338.24,360.2133 331.48,364.3733 319.4667,373.96"
       id="polyline133"
       style="stroke:#859599;stroke-opacity:1" />
    <polyline
       points="329.9733,350.5733 332.9867,346.9333 335.24,346.24 338.24,343.4133 343.4933,343.8667 345.7467,343.88 348.0,343.48 350.2533,341.84 352.5067,341.1867 358.5067,337.3733 358.5067,336.1467 357.76,337.2933 354.0,340.28 349.4933,342.5467 346.4933,343.56 343.4933,343.88 341.24,343.7467 336.7333,344.9467 333.7333,346.8267 329.9733,350.44"
       id="polyline134"
       style="stroke:#859599;stroke-opacity:1" />
    <polyline
       points="335.9867,337.0267 339.7333,334.04 340.4933,333.9333 341.24,334.48"
       id="polyline135"
       style="stroke:#859599;stroke-opacity:1" />
    <polyline
       points="344.24,333.4 341.9867,332.8267 340.4933,331.5333 338.9867,332.12 338.24,332.8267 337.48,332.8667 336.7333,333.5467"
       id="polyline136"
       style="stroke:#859599;stroke-opacity:1" />
    <polyline
       points="336.7333,330.6 338.24,330.4667 339.7333,328.8267 341.24,329.4267 342.7467,330.6267 345.7467,331.3467"
       id="polyline137"
       style="stroke:#859599;stroke-opacity:1" />
    <polyline
       points="342.7467,327.5467 346.4933,329.3333 348.7467,329.3467 351.0,328.32"
       id="polyline138"
       style="stroke:#859599;stroke-opacity:1" />
    <polyline
       points="362.2533,321.36 363.0133,319.68 366.76,315.5333 369.0133,314.3333 370.52,312.7467 373.52,311.1067"
       id="polyline139"
       style="stroke:#859599;stroke-opacity:1" />
    <polyline
       points="372.7733,308.28 370.52,309.5867 369.0133,311.3867 366.76,312.36 363.76,315.72"
       id="polyline140"
       style="stroke:#859599;stroke-opacity:1" />
    <polyline
       points="361.5067,315.0533 364.5067,311.3467 368.2667,308.5867 369.76,308.0533 370.52,306.8267"
       id="polyline141"
       style="stroke:#859599;stroke-opacity:1" />
    <polyline
       points="368.2667,305.56 366.0133,307.6667 365.2667,307.88 360.76,312.1733"
       id="polyline142"
       style="stroke:#859599;stroke-opacity:1" />
    <polyline
       points="358.5067,309.9333 359.2533,308.3067 361.5067,305.4667 366.76,301.0667 368.2667,300.44"
       id="polyline143"
       style="stroke:#859599;stroke-opacity:1" />
    <polyline
       points="367.52,298.4267 364.5067,300.0 360.0133,304.1067 358.5067,305.9867"
       id="polyline144"
       style="stroke:#859599;stroke-opacity:1" />
    <polyline
       points="361.5067,308.6 363.76,306.3733 368.2667,302.8267"
       id="polyline145"
       style="stroke:#859599;stroke-opacity:1" />
    <polyline
       points="377.2667,314.44 374.2667,316.84 371.2667,320.1467 369.0133,323.68 367.52,328.4533"
       id="polyline146"
       style="stroke:#859599;stroke-opacity:1" />
    <polyline
       points="369.76,329.5867 372.7733,323.8533 374.2667,320.16 377.2667,317.5467 378.0267,320.5067"
       id="polyline147"
       style="stroke:#859599;stroke-opacity:1" />
    <polyline
       points="371.2667,333.56 375.7733,321.8933 376.52,321.0 378.0267,326.56 378.7733,337.0933"
       id="polyline148"
       style="stroke:#859599;stroke-opacity:1" />
    <polyline
       points="380.28,340.4667 379.52,341.2267 378.7733,340.5467 377.2667,329.4667 375.0267,331.8667 374.2667,333.3733 370.52,344.0667 369.0133,341.6533 367.52,340.88 366.76,341.0667 365.2667,340.1733 363.76,341.0533"
       id="polyline149"
       style="stroke:#859599;stroke-opacity:1" />
    <polyline
       points="363.76,347.8133 365.2667,347.3733 369.76,349.2533 370.52,348.7867"
       id="polyline150"
       style="stroke:#859599;stroke-opacity:1" />
    <polyline
       points="372.0133,351.2 370.52,351.1733 368.2667,351.6667 365.2667,350.2 363.0133,350.84"
       id="polyline151"
       style="stroke:#859599;stroke-opacity:1" />
    <polyline
       points="376.52,346.8533 377.2667,347.3067 378.0267,347.0 380.28,345.7733 382.5333,344.0933"
       id="polyline152"
       style="stroke:#859599;stroke-opacity:1" />
    <polyline
       points="378.7733,343.5733 377.2667,340.72 375.7733,341.0667 375.0267,341.6933"
       id="polyline153"
       style="stroke:#859599;stroke-opacity:1" />
    <polyline
       points="363.76,324.5333 366.76,318.7867 367.52,318.4667 370.52,315.8133 375.0267,312.48 375.0267,313.0267 372.0133,314.3867 369.76,316.1867 366.76,319.6933 363.76,324.4933"
       id="polyline154"
       style="stroke:#859599;stroke-opacity:1" />
    <polyline
       points="367.52,396.2 368.2667,396.2933 370.52,397.5333 371.2667,397.4267 373.52,396.2533 374.2667,396.7733 378.0267,395.9333 378.0267,396.3067 367.52,396.6933"
       id="polyline155"
       style="stroke:#859599;stroke-opacity:1" />
    <polyline
       points="366.76,401.0133 378.7733,398.64 378.7733,398.4933 376.52,398.9867 375.0267,399.9333 373.52,399.4933 372.7733,400.3733 372.0133,400.6533 369.76,399.0933 368.2667,399.7867 366.76,402.1067"
       id="polyline156"
       style="stroke:#859599;stroke-opacity:1" />
    <polyline
       points="367.52,405.08 369.0133,403.7333 369.76,402.2533 373.52,403.5467 374.2667,403.52 375.0267,403.2933 375.7733,401.9333 376.52,401.4"
       id="polyline157"
       style="stroke:#859599;stroke-opacity:1" />
    <polyline
       points="383.28,404.0 381.0267,403.7867 380.28,404.44 378.7733,406.7333 375.7733,408.8 373.52,408.72 371.2667,409.52 370.52,409.3733"
       id="polyline158"
       style="stroke:#859599;stroke-opacity:1" />
    <polyline
       points="369.76,406.9467 371.2667,405.52 372.0133,405.2933 372.7733,406.0533 374.2667,406.28 375.7733,406.04 377.2667,403.5467 381.0267,401.6533 382.5333,401.56 382.5333,400.9867 378.7733,403.4133 375.7733,404.88 372.7733,405.88 369.76,406.4533"
       id="polyline159"
       style="stroke:#859599;stroke-opacity:1" />
    <polyline
       points="372.0133,411.7467 376.52,410.8667 379.52,409.6 382.5333,406.3867 384.0267,406.3333 384.0267,406.1733 378.7733,409.32 372.0133,412.1867"
       id="polyline160"
       style="stroke:#859599;stroke-opacity:1" />
    <polyline
       points="374.2667,413.52 375.7733,413.3867 378.7733,412.4533 381.0267,411.2933 383.28,408.84 384.0267,408.4667 384.0267,408.8533 378.7733,412.0133 374.2667,414.0667"
       id="polyline161"
       style="stroke:#859599;stroke-opacity:1" />
    <polyline
       points="362.2533,413.6 365.2667,414.4267 371.2667,414.84 378.7733,414.1467 384.7733,413.1467 402.04,409.4667 408.8,406.9733 415.56,403.5067 420.0667,400.68 429.0667,394.3467 438.08,386.9467 441.8267,382.96 457.6,364.4 460.6,361.2933 466.6,356.12 472.6133,351.9467 486.8667,343.0933 495.88,337.9733 503.3867,334.12 503.3867,334.3467 501.1333,336.4133 498.88,336.3467 495.88,336.84 493.6267,338.2533 492.88,338.4133 491.3733,339.4 490.6267,340.3333 486.12,343.9867 483.8667,345.3733 479.36,348.8667 474.8533,351.1467 465.8533,356.8533 462.8533,358.28 462.0933,358.3733 459.84,359.68 456.0933,365.8 455.3467,366.24 452.3333,369.8667 450.84,373.0667 448.5867,376.8133 447.84,377.2 447.08,377.04 446.3333,380.16 443.3333,383.08 438.8267,386.3333 438.08,386.6 429.0667,394.3733 420.0667,400.8 415.56,403.5867 404.2933,409.3333 402.04,409.7733 400.5467,409.7067 390.7867,412.1067 388.5333,412.1467 387.7867,412.4133 386.28,411.4267 384.0267,411.4 382.5333,412.6 381.7733,413.6133 378.7733,414.76 378.0267,415.44 375.7733,415.8533 374.2667,415.6 370.52,416.1467 367.52,415.4667 362.2533,413.1733"
       id="polyline162"
       style="stroke:#859599;stroke-opacity:1" />
    <polyline
       points="363.0133,420.6133 358.5067,417.7333 349.4933,412.9867 347.24,412.0 344.9867,411.6533 339.7333,411.8533 329.2267,416.52 323.9733,417.5467 320.2267,417.64 312.72,419.1867 308.2133,420.52 303.7067,422.5867 296.9467,426.6 290.2,431.1733 283.44,436.2667 276.68,442.24 257.92,461.36 251.16,467.08 243.6533,471.8933 237.6533,474.4 232.3867,475.6 226.3867,475.1867 221.1333,474.2133 215.1333,474.24 210.6267,474.8533 203.12,478.28 195.6133,482.6933 167.08,496.2933 156.5733,500.4267 156.5733,499.8667 158.08,499.8933 162.5867,499.0267 165.5867,497.3467 167.84,496.4933 173.0933,493.0667 174.5867,492.5867 180.6,489.4667 181.3467,489.4667 186.6,486.4133 188.8533,485.6 190.36,485.48 191.1067,484.84 197.1067,482.5467 200.12,480.68 203.12,479.4533 205.3733,478.0267 210.6267,473.6267 212.88,472.1867 215.1333,473.0133 217.3733,472.9867 220.3867,473.8933 223.3867,474.2133 226.3867,475.8 230.1467,476.52 236.1467,475.1867 238.4,473.8933 239.1467,473.88 241.4,472.8533 242.9067,471.7333 246.6533,469.9733 251.16,466.64 253.4133,465.7333 257.92,462.3867 263.1733,455.9733 265.4267,452.0933 266.1733,451.88 267.68,450.4533 269.92,449.6133 272.1733,446.52 274.4267,445.04 280.44,439.56 283.44,435.52 286.44,432.7467 288.6933,431.1067 289.44,430.1467 290.9467,429.28 293.2,429.0267 294.6933,429.52 295.4533,429.4 299.2,426.28 300.7067,425.9867 302.2,424.68 305.2133,421.0533 308.96,418.7867 310.4667,418.3333 311.2133,418.6133 314.96,417.3467 320.9733,416.8133 326.9733,417.0533 329.2267,418.1333 332.2267,418.24 335.9867,416.4267 339.7333,413.4933 341.9867,408.7733 344.24,407.3867 346.4933,406.9733 348.7467,408.6267 351.0,412.8933 354.7467,416.6 356.2533,418.8533 358.5067,419.7333 359.2533,422.3467 360.76,424.9867 363.0133,426.64"
       id="polyline163"
       style="stroke:#859599;stroke-opacity:1" />
    <polyline
       points="359.2533,436.3733 358.5067,435.7467 353.2533,435.64 350.2533,434.6"
       id="polyline164"
       style="stroke:#859599;stroke-opacity:1" />
    <polyline
       points="348.0,434.8667 351.7467,437.5333 354.0,437.9067 356.2533,437.4533 357.76,438.0667"
       id="polyline165"
       style="stroke:#859599;stroke-opacity:1" />
    <polyline
       points="341.24,431.4267 335.9867,431.92 332.2267,432.8933 328.48,435.1333 322.4667,437.4 318.72,438.4667 317.9733,439.28 315.72,440.5467 314.2133,440.9867 313.4667,441.6667 307.4533,445.0533 304.4533,447.3333 301.4533,448.7733"
       id="polyline166"
       style="stroke:#859599;stroke-opacity:1" />
    <polyline
       points="302.2,446.3467 303.7067,445.2933 304.4533,445.1467 305.2133,444.32 309.7067,441.3733 315.72,438.3867 318.72,436.2933 325.48,434.1867 332.9867,430.2267 335.9867,429.4 341.24,429.2267"
       id="polyline167"
       style="stroke:#859599;stroke-opacity:1" />
    <polyline
       points="344.24,426.32 340.4933,424.1867 332.2267,425.6933 322.4667,430.5067 318.72,431.8267 315.72,433.8667 314.2133,434.24 309.7067,436.8 308.96,436.8667 305.96,439.4533 297.7067,444.0933 296.9467,444.8933"
       id="polyline168"
       style="stroke:#859599;stroke-opacity:1" />
    <polyline
       points="296.2,447.8133 300.7067,444.7333 311.96,437.84 319.4667,434.0267 324.72,431.8533 331.48,428.5467 334.48,427.6 337.48,427.0133 340.4933,427.1067 342.7467,427.7467 344.9867,428.7867 352.5067,433.1067 354.7467,433.3733 357.0,432.96 357.0,433.04 354.0,433.3867 351.0,432.6533 347.24,429.8533 344.24,428.4267 342.7467,428.0267 341.9867,427.24 340.4933,426.6533 334.48,427.52 328.48,429.8533 326.9733,430.5733 326.2267,431.3067 318.72,434.2933 311.96,437.76 308.2133,439.8533 306.7067,440.8933 305.96,441.88 299.9467,445.04 296.2,447.8667"
       id="polyline169"
       style="stroke:#859599;stroke-opacity:1" />
    <polyline
       points="290.9467,447.2133 289.44,447.6533 287.9467,448.6533 287.1867,448.6667 281.9333,454.0 279.68,455.44 277.4267,457.7067 278.1867,458.9333 279.68,458.0533 281.1867,456.6667 282.6933,455.88 284.1867,453.72 286.44,451.4933 288.6933,450.5867"
       id="polyline170"
       style="stroke:#859599;stroke-opacity:1" />
    <polyline
       points="289.44,444.88 290.9467,444.52 292.44,442.9067 293.2,443.1467 296.9467,440.12 298.4533,438.5467 301.4533,437.5333 304.4533,435.7733 310.4667,431.52 314.96,429.1333 315.72,429.0533 317.9733,427.9467 321.72,425.8 323.9733,425.2267 328.48,422.3867 330.7333,421.7067"
       id="polyline171"
       style="stroke:#859599;stroke-opacity:1" />
    <polyline
       points="338.24,419.7333 341.24,418.9333 341.9867,419.16 342.7467,420.0533"
       id="polyline172"
       style="stroke:#859599;stroke-opacity:1" />
    <polyline
       points="343.4933,423.3067 341.9867,421.9467 340.4933,421.48 334.48,423.28 332.2267,423.3333 329.9733,424.6667 329.2267,424.6667 327.7333,425.2533 323.9733,427.64 321.72,428.32 309.7067,434.1733 303.7067,438.6 299.2,440.92 298.4533,440.96 297.7067,441.88"
       id="polyline173"
       style="stroke:#859599;stroke-opacity:1" />
    <polyline
       points="300.7067,451.4133 304.4533,449.6933 305.96,448.1467 306.7067,447.9867 309.7067,446.28 313.4667,443.6133 316.4667,442.4667 317.2133,441.7733 320.2267,440.36 323.9733,439.36 329.2267,437.08 332.2267,435.2667 334.48,435.0667 335.24,434.6133 338.24,434.2133 339.7333,433.6933"
       id="polyline174"
       style="stroke:#859599;stroke-opacity:1" />
    <polyline
       points="332.2267,409.6533 335.24,409.1333 337.48,404.6 338.24,404.8267 338.9867,404.0933"
       id="polyline175"
       style="stroke:#859599;stroke-opacity:1" />
    <polyline
       points="327.7333,406.08 330.7333,405.6 332.2267,404.6933 333.7333,404.64 336.7333,398.1333 337.48,397.7333 337.48,398.5467 332.2267,403.6667 327.7333,406.4667"
       id="polyline176"
       style="stroke:#859599;stroke-opacity:1" />
    <polyline
       points="325.48,403.6533 329.9733,402.5867 334.48,400.7067 334.48,400.2267 332.9867,401.84 331.48,401.5067 330.7333,402.76 329.9733,403.3333 325.48,403.3733"
       id="polyline177"
       style="stroke:#859599;stroke-opacity:1" />
    <polyline
       points="279.68,423.0533 280.44,422.2667 281.1867,422.1733 284.1867,418.9467 285.6933,417.9733 290.9467,413.2 293.2,412.0667 294.6933,411.92 296.2,411.2667 296.9467,410.6133 300.7067,409.0133 302.2,407.7067 304.4533,404.8933 309.7067,403.16 311.2133,403.28 311.2133,402.7467 307.4533,404.2267 302.2,407.3067 299.2,409.4533 290.2,414.08 285.6933,417.7067 279.68,423.28"
       id="polyline178"
       style="stroke:#859599;stroke-opacity:1" />
    <polyline
       points="281.9333,451.5333 278.1867,454.2933 277.4267,455.3867"
       id="polyline179"
       style="stroke:#859599;stroke-opacity:1" />
    <polyline
       points="279.68,460.12 281.9333,458.9333 285.6933,454.7733 288.6933,452.8533 288.6933,452.6 279.68,460.44"
       id="polyline180"
       style="stroke:#859599;stroke-opacity:1" />
    <polyline
       points="281.9333,460.5733 283.44,458.96 286.44,456.9467"
       id="polyline181"
       style="stroke:#859599;stroke-opacity:1" />
    <line
       x1="285.6933"
       x2="281.1867"
       y1="459.7067"
       y2="463.8533"
       id="line181"
       style="stroke:#859599;stroke-opacity:1" />
    <polyline
       points="285.6933,513.3867 287.1867,513.56 290.9467,512.8667 296.9467,510.6267 298.4533,509.7467 301.4533,508.9733 303.7067,508.92 314.96,504.6133 315.72,504.6267 325.48,501.52 329.9733,499.7867 332.9867,497.6667 337.48,496.4 341.24,494.08 341.9867,494.04 345.7467,491.6533 348.7467,491.2533 351.7467,491.3333 353.2533,490.8667 354.0,491.0533 355.5067,490.3067 356.2533,490.3467 358.5067,489.0267 360.0133,487.6 365.2667,485.9467 366.76,485.0533 370.52,483.7067 373.52,484.0133 374.2667,484.84 375.7733,483.8 376.52,482.6 377.2667,482.8667 378.7733,482.2 385.5333,480.76 390.04,478.24 394.5333,476.16 396.7867,474.36 399.04,473.6 401.2933,472.12 401.2933,472.4933 398.2933,473.8667 390.04,478.4533 384.0267,481.08 378.7733,482.72 369.76,484.4 366.0133,485.4267 358.5067,489.0 354.0,490.7867 348.7467,491.2933 344.9867,492.24 337.48,496.1333 323.9733,502.0 305.96,507.88 285.6933,513.9867"
       id="polyline182"
       style="stroke:#859599;stroke-opacity:1" />
    <polyline
       points="305.2133,523.6 311.2133,522.2667 314.96,521.0933 317.2133,520.9467 327.7333,518.3467"
       id="polyline183"
       style="stroke:#859599;stroke-opacity:1" />
    <polyline
       points="344.24,512.8267 347.24,511.28 349.4933,510.5333 350.2533,510.5067 356.2533,508.4133 358.5067,508.24 360.76,507.5333 362.2533,508.48 363.76,509.9333 364.5067,509.8933"
       id="polyline184"
       style="stroke:#859599;stroke-opacity:1" />
    <polyline
       points="366.76,501.1333 366.0133,501.5067 365.2667,501.1867 364.5067,501.6533 363.0133,501.4933 362.2533,501.1067 360.76,501.24"
       id="polyline185"
       style="stroke:#859599;stroke-opacity:1" />
    <polyline
       points="372.7733,503.8267 376.52,502.5867 380.28,502.1867 385.5333,500.6533 393.04,496.5333 397.5467,493.0933 399.7867,490.96 405.8,484.1333 407.2933,481.48"
       id="polyline186"
       style="stroke:#859599;stroke-opacity:1" />
    <line
       x1="379.52"
       x2="373.52"
       y1="460.64"
       y2="458.7467"
       id="line186"
       style="stroke:#859599;stroke-opacity:1" />
    <polyline
       points="367.52,477.96 363.0133,479.12 362.2533,479.7467 360.76,480.32"
       id="polyline187"
       style="stroke:#859599;stroke-opacity:1" />
    <polyline
       points="360.0133,482.8667 361.5067,481.9067 362.2533,482.1067 371.2667,479.08"
       id="polyline188"
       style="stroke:#859599;stroke-opacity:1" />
    <polyline
       points="371.2667,481.2667 369.0133,481.6267 368.2667,482.3333 367.52,482.44 366.76,483.0267 365.2667,483.3067 362.2533,484.8533"
       id="polyline189"
       style="stroke:#859599;stroke-opacity:1" />
    <polyline
       points="380.28,432.7333 386.28,430.84 389.28,430.6133 396.7867,428.1867 400.5467,427.3467 408.8,423.5867 412.56,421.36 413.3067,421.2933 414.8,420.1867 416.3067,419.68 428.32,411.68 430.5733,410.7067 435.08,407.8133 437.32,406.08"
       id="polyline190"
       style="stroke:#859599;stroke-opacity:1" />
    <polyline
       points="437.32,403.84 430.5733,410.2133 426.0667,413.6533 416.3067,419.6267 405.0533,425.3333 399.04,427.7333 391.5333,430.0933 384.0267,431.0933 380.28,430.6267"
       id="polyline191"
       style="stroke:#859599;stroke-opacity:1" />
    <polyline
       points="404.2933,396.4667 405.0533,395.68 406.5467,395.1733 407.2933,394.6 408.8,394.8267 408.8,394.4667 404.2933,396.0533 403.5467,394.8133 406.5467,392.4667 408.0533,392.04 408.8,392.3867 409.5467,392.2 409.5467,391.7067 403.5467,394.1867"
       id="polyline192"
       style="stroke:#859599;stroke-opacity:1" />
    <polyline
       points="437.32,412.6 439.5733,406.7733 444.08,399.84 444.8267,397.4533 446.3333,395.52 447.08,395.0533 448.5867,394.84"
       id="polyline193"
       style="stroke:#859599;stroke-opacity:1" />
    <polyline
       points="456.0933,396.8 454.5867,396.4933 452.3333,396.7467 450.84,396.4267 450.0933,396.9067 449.3333,396.7733 447.84,398.1867 445.5867,399.6533 444.8267,400.8 444.08,403.0933 443.3333,403.48"
       id="polyline194"
       style="stroke:#859599;stroke-opacity:1" />
    <polyline
       points="446.3333,403.6 450.84,399.52 452.3333,398.8 455.3467,398.9067 455.3467,397.7333 446.3333,402.96"
       id="polyline195"
       style="stroke:#859599;stroke-opacity:1" />
    <polyline
       points="443.3333,408.08 444.08,407.3467 449.3333,404.5867 451.5867,401.8 453.84,400.8533 455.3467,401.32"
       id="polyline196"
       style="stroke:#859599;stroke-opacity:1" />
    <polyline
       points="455.3467,404.1067 454.5867,403.9867 450.84,406.5333 449.3333,407.0133 447.08,408.2533 445.5867,408.5333 444.08,409.4933 442.5867,410.8533 441.08,413.56"
       id="polyline197"
       style="stroke:#859599;stroke-opacity:1" />
    <polyline
       points="441.08,417.3867 443.3333,415.08 445.5867,411.3333"
       id="polyline198"
       style="stroke:#859599;stroke-opacity:1" />
    <polyline
       points="453.0933,387.6133 462.0933,380.16 471.1067,374.2533 486.12,366.04 495.1333,361.7333 502.64,358.5467 502.64,357.9067 501.1333,358.5467 499.6267,359.7333 495.1333,362.2933 492.12,363.68 485.3733,366.12 481.6133,368.4667 473.36,372.7733 465.1067,378.44 460.6,380.9333 453.0933,386.5067"
       id="polyline199"
       style="stroke:#859599;stroke-opacity:1" />
    <polyline
       points="454.5867,374.2 460.6,367.92 462.0933,367.48 462.0933,367.16 454.5867,374.12"
       id="polyline200"
       style="stroke:#859599;stroke-opacity:1" />
    <polyline
       points="462.8533,356.32 471.1067,350.64 479.36,346.3733 492.88,336.1867 495.1333,334.92 498.88,333.7067 498.88,334.24 498.1333,333.64 497.3733,333.5867 491.3733,336.8667 489.8667,338.6133 488.3733,339.8267 486.12,341.0667 481.6133,344.92 477.1067,347.7067 472.6133,350.0 471.8533,349.56 471.1067,349.8933 469.6,352.0667 462.8533,356.0933"
       id="polyline201"
       style="stroke:#859599;stroke-opacity:1" />
    <polyline
       points="463.6,353.32 471.8533,348.1467 478.6133,344.7467 491.3733,334.6 493.6267,333.12 496.6267,331.9467 499.6267,331.6533 501.1333,331.84 501.1333,331.88 496.6267,331.56 495.88,332.1733 495.1333,332.2667 492.88,333.6 492.12,333.7333 488.3733,337.48 485.3733,339.16 483.8667,340.92 482.36,341.7067 479.36,344.3733 474.1067,347.3733 472.6133,347.64 471.1067,347.44 467.3467,351.36 463.6,353.16"
       id="polyline202"
       style="stroke:#859599;stroke-opacity:1" />
    <polyline
       points="465.8533,349.8133 467.3467,348.72 468.1067,347.3333 469.6,345.9333 474.1067,344.9067 480.12,341.5867 482.36,339.2 483.12,338.9467 488.3733,334.7467 490.6267,332.28 495.1333,329.7333 498.1333,328.56 499.6267,329.4267 500.3867,329.2933 501.88,327.4"
       id="polyline203"
       style="stroke:#859599;stroke-opacity:1" />
    <polyline
       points="490.6267,328.1733 487.6267,329.4933 486.12,331.4267 482.36,335.0133 481.6133,335.2667 480.8667,336.1733 480.12,336.4133 477.8667,338.36 474.8533,340.0133"
       id="polyline204"
       style="stroke:#859599;stroke-opacity:1" />
    <polyline
       points="471.8533,342.6133 474.1067,342.6533 477.8667,340.5733 487.6267,332.9467 489.12,331.0 491.3733,330.0933 493.6267,327.8667 498.1333,326.24 498.88,326.5467 501.1333,325.5867 501.88,323.9867 503.3867,326.0 503.3867,325.2133 498.88,325.9867 493.6267,328.2 489.8667,330.8133 479.36,339.4533 477.1067,340.84 471.8533,342.9067"
       id="polyline205"
       style="stroke:#859599;stroke-opacity:1" />
    <polyline
       points="462.8533,341.6267 465.1067,340.5733 467.3467,338.4533 470.36,333.6533 471.1067,334.4 471.8533,334.48 472.6133,335.44 473.36,335.6 476.36,334.2533 482.36,330.2667 483.12,328.8667 484.6133,327.12 489.12,324.1067 494.3733,321.1467 496.6267,319.1067 496.6267,319.4 488.3733,324.68 485.3733,326.92 479.36,332.4933 476.36,334.4933 471.8533,334.9067 468.8533,336.4267 466.6,338.2933 462.8533,342.5867 462.8533,344.04 465.1067,342.9333 465.8533,341.7867 467.3467,341.3733 468.1067,340.0933 468.8533,339.4667 469.6,337.9067 473.36,338.0667 475.6133,337.28 477.1067,335.92 480.12,334.4133 485.3733,329.6667 486.8667,327.7467 491.3733,325.4 491.3733,325.1867 486.8667,328.4533 478.6133,335.28 474.8533,337.3867 469.6,339.1733 465.8533,341.8 462.8533,344.56"
       id="polyline206"
       style="stroke:#859599;stroke-opacity:1" />
    <polyline
       points="471.8533,358.8 487.6267,349.12 498.88,343.3333 503.3867,340.24 503.3867,339.6933 502.64,340.9333 501.88,341.1467 501.1333,342.28 499.6267,343.48 498.88,343.8133 497.3733,343.2533 495.88,345.0267 495.1333,345.2533 492.88,346.9467 489.8667,347.84 487.6267,348.96 485.3733,350.68 484.6133,350.9067 480.12,353.9333 475.6133,356.44 474.1067,357.68 471.8533,358.8533"
       id="polyline207"
       style="stroke:#859599;stroke-opacity:1" />
    <polyline
       points="475.6133,358.72 486.8667,351.8933 492.88,349.1333 503.3867,343.0533 503.3867,342.7067 502.64,343.64 500.3867,345.24 499.6267,345.6 498.1333,345.5867 493.6267,348.9867 486.8667,351.6533 483.12,354.4267 477.8667,357.24 476.36,358.3867 475.6133,358.56"
       id="polyline208"
       style="stroke:#859599;stroke-opacity:1" />
    <polyline
       points="474.8533,361.3067 480.12,358.0933 482.36,357.0533 486.12,354.56 486.8667,353.76 492.12,352.1867 495.88,350.0 497.3733,348.7733 498.88,348.5733 501.1333,346.8267"
       id="polyline209"
       style="stroke:#859599;stroke-opacity:1" />
    <polyline
       points="503.3867,347.8933 498.1333,351.3067 496.6267,351.44 494.3733,353.3733 492.88,354.2533 486.8667,356.1467 486.12,356.9067 479.36,360.76 478.6133,361.4933 477.8667,361.6267 474.8533,363.36"
       id="polyline210"
       style="stroke:#859599;stroke-opacity:1" />
    <polyline
       points="476.36,364.6133 480.12,362.4933 480.8667,362.3333 482.36,361.1067 486.12,359.4133 487.6267,358.2 491.3733,357.2133 495.88,355.12 496.6267,354.12 497.3733,353.68 498.1333,353.6533 501.88,351.3733 502.64,351.36"
       id="polyline211"
       style="stroke:#859599;stroke-opacity:1" />
    <polyline
       points="503.3867,352.68 501.88,354.0133 496.6267,356.6 495.1333,357.8533 494.3733,357.9467 491.3733,359.6133 487.6267,360.5733 479.36,365.4133 476.36,366.7333 475.6133,367.52 474.1067,368.3333"
       id="polyline212"
       style="stroke:#859599;stroke-opacity:1" />
    <polyline
       points="474.1067,370.36 478.6133,367.7067 480.12,367.1467 483.8667,364.7867 487.6267,363.0 489.12,362.64"
       id="polyline213"
       style="stroke:#859599;stroke-opacity:1" />
    <line
       x1="495.88"
       x2="503.3867"
       y1="359.6133"
       y2="355.1733"
       id="line213"
       style="stroke:#859599;stroke-opacity:1" />
    <polyline
       points="493.6267,377.6533 492.88,377.9067 489.12,381.0267"
       id="polyline214"
       style="stroke:#859599;stroke-opacity:1" />
    <polyline
       points="489.8667,425.5333 486.8667,429.4 486.12,430.0 485.3733,430.0267 483.8667,432.24"
       id="polyline215"
       style="stroke:#859599;stroke-opacity:1" />
    <polyline
       points="485.3733,442.2133 483.12,443.92 480.8667,449.1867"
       id="polyline216"
       style="stroke:#859599;stroke-opacity:1" />
    <polyline
       points="443.3333,463.36 447.84,459.96 453.0933,455.3867 453.0933,455.48 447.84,460.1067 447.08,460.3333 445.5867,461.9067 444.8267,462.2267 443.3333,463.8267"
       id="polyline217"
       style="stroke:#859599;stroke-opacity:1" />
    <polyline
       points="264.6667,395.04 262.4133,394.9867 258.6667,392.6 257.16,393.2533 254.9067,392.8667 253.4133,392.28 252.6667,392.4 251.16,391.2933 248.16,390.1867"
       id="polyline218"
       style="stroke:#859599;stroke-opacity:1" />
    <polyline
       points="251.16,389.0 252.6667,388.9733 254.16,389.9333 256.4133,390.6267 258.6667,390.12 263.92,392.88"
       id="polyline219"
       style="stroke:#859599;stroke-opacity:1" />
    <polyline
       points="259.4133,388.24 258.6667,387.8933 256.4133,388.0 254.16,387.5333 250.4133,386.12"
       id="polyline220"
       style="stroke:#859599;stroke-opacity:1" />
    <polyline
       points="250.4133,383.6533 252.6667,383.5067 254.9067,385.2 257.92,385.8133"
       id="polyline221"
       style="stroke:#859599;stroke-opacity:1" />
    <polyline
       points="257.16,383.24 262.4133,384.3867 263.92,385.24 266.92,384.48"
       id="polyline222"
       style="stroke:#859599;stroke-opacity:1" />
    <polyline
       points="265.4267,381.0667 264.6667,381.9733 263.1733,382.2933 262.4133,381.8667 257.92,381.2667 257.16,380.6933 256.4133,378.5067"
       id="polyline223"
       style="stroke:#859599;stroke-opacity:1" />
    <polyline
       points="251.16,373.96 253.4133,373.2533 254.9067,374.0533 256.4133,372.5867 257.92,373.56 258.6667,374.4533 260.92,375.3067 262.4133,374.24 262.4133,374.4133 256.4133,373.6667 251.16,373.5467"
       id="polyline224"
       style="stroke:#859599;stroke-opacity:1" />
    <polyline
       points="254.16,371.16 254.9067,370.1733 256.4133,369.7867 258.6667,371.6667 260.1733,371.7467 260.92,372.2133"
       id="polyline225"
       style="stroke:#859599;stroke-opacity:1" />
    <polyline
       points="260.1733,369.2267 258.6667,368.5333 256.4133,366.28 255.6667,367.4667 253.4133,368.24"
       id="polyline226"
       style="stroke:#859599;stroke-opacity:1" />
    <polyline
       points="249.6533,367.52 250.4133,366.6533 251.16,366.7333 251.9067,365.16 252.6667,365.0667 253.4133,365.8 254.9067,363.6533"
       id="polyline227"
       style="stroke:#859599;stroke-opacity:1" />
    <polyline
       points="254.16,361.44 253.4133,362.56 250.4133,363.1467 248.16,365.0267 245.9067,368.2267"
       id="polyline228"
       style="stroke:#859599;stroke-opacity:1" />
    <polyline
       points="243.6533,362.9467 245.16,360.8133 248.16,357.5867 249.6533,357.6133 251.16,356.96 251.9067,357.3867"
       id="polyline229"
       style="stroke:#859599;stroke-opacity:1" />
    <polyline
       points="251.16,354.8533 250.4133,354.6133 249.6533,354.88 248.16,354.7067 246.6533,355.7467 244.4,358.5333 242.1467,360.7067"
       id="polyline230"
       style="stroke:#859599;stroke-opacity:1" />
    <polyline
       points="272.9333,366.8133 291.6933,367.8533 291.6933,368.1733 289.44,367.2133 288.6933,367.6267 287.9467,367.2533 287.1867,367.4933 286.44,367.12 285.6933,367.8933 284.9333,367.8667 281.1867,366.9467 278.9333,367.1733 276.68,366.7867 275.9333,367.0267 274.4267,366.4533 273.68,366.5467 272.9333,367.5333"
       id="polyline231"
       style="stroke:#859599;stroke-opacity:1" />
    <polyline
       points="240.6533,393.24 239.1467,393.96 238.4,393.76 235.4,396.1733"
       id="polyline232"
       style="stroke:#859599;stroke-opacity:1" />
    <polyline
       points="196.36,401.9733 201.6133,404.7067 201.6133,404.0533 200.12,404.12 197.1067,402.56 196.36,402.5867"
       id="polyline233"
       style="stroke:#859599;stroke-opacity:1" />
    <polyline
       points="260.1733,521.5067 277.4267,515.9067 277.4267,515.5333 269.92,518.5867 262.4133,520.5333 260.1733,521.56"
       id="polyline234"
       style="stroke:#859599;stroke-opacity:1" />
    <polyline
       points="73.2533,602.7867 71.0,602.5333 70.2533,602.8133 68.0,602.5467 65.7467,602.8 62.7467,602.0533 61.24,601.8933 58.9867,602.3067 57.4933,601.92"
       id="polyline235"
       style="stroke:#859599;stroke-opacity:1" />
    <polyline
       points="56.7333,582.4533 62.7467,583.4267 68.7467,586.0533 71.7467,586.6667 72.5067,587.28 73.2533,587.4 79.2533,586.7733 82.2533,586.8 86.0133,587.5733 89.0133,587.1467 89.0133,587.2267 73.2533,587.0533 67.24,585.44 56.7333,582.0133"
       id="polyline236"
       style="stroke:#859599;stroke-opacity:1" />
  </g>
  <g
     fill="none"
     id="layer3"
     inkscape:groupmode="layer"
     inkscape:label="3"
     stroke="#000000"
     stroke-width="1.9867"
     style="display:inline;stroke:#859599;stroke-opacity:1">
    <polyline
       points="49.1467,721.2267 50.2,716.72 50.8533,712.2533 51.08,706.9333 50.7733,701.72"
       id="polyline237"
       style="stroke:#859599;stroke-opacity:1" />
    <polyline
       points="49.48,699.56 51.3733,700.7333 53.7733,701.6267"
       id="polyline238"
       style="stroke:#859599;stroke-opacity:1" />
    <polyline
       points="55.6667,700.9733 53.04,702.8533 50.0933,704.1867"
       id="polyline239"
       style="stroke:#859599;stroke-opacity:1" />
    <polyline
       points="51.12,706.4 48.3333,703.2667 44.48,700.3467"
       id="polyline240"
       style="stroke:#859599;stroke-opacity:1" />
    <polyline
       points="65.8267,704.2533 68.2667,702.52 71.4267,701.12 71.0533,699.9067 71.32,704.76 71.1067,710.24 70.4267,715.0533 69.1467,720.3867"
       id="polyline241"
       style="stroke:#859599;stroke-opacity:1" />
    <line
       x1="65.04"
       x2="65.3467"
       y1="720.9733"
       y2="717.24"
       id="line241"
       style="stroke:#859599;stroke-opacity:1" />
    <polyline
       points="70.56,716.0933 72.6933,719.0267 75.3467,721.48"
       id="polyline242"
       style="stroke:#859599;stroke-opacity:1" />
    <polyline
       points="70.8933,731.8533 67.8267,732.1867 64.88,733.1067"
       id="polyline243"
       style="stroke:#859599;stroke-opacity:1" />
    <polyline
       points="65.5467,731.0267 65.3467,733.88 64.6,736.64"
       id="polyline244"
       style="stroke:#859599;stroke-opacity:1" />
    <polyline
       points="66.0667,735.8 68.16,736.6533 70.0533,737.9067"
       id="polyline245"
       style="stroke:#859599;stroke-opacity:1" />
    <polyline
       points="75.8933,737.0133 73.2,734.8933 70.64,731.8933 70.0,732.5733 70.5467,738.6 70.52,742.72 70.08,747.48 69.08,752.7733"
       id="polyline246"
       style="stroke:#859599;stroke-opacity:1" />
    <polyline
       points="64.1733,751.24 65.2533,748.52 66.4667,746.6533"
       id="polyline247"
       style="stroke:#859599;stroke-opacity:1" />
    <polyline
       points="70.7333,746.1733 72.5333,749.68 74.9867,752.7733"
       id="polyline248"
       style="stroke:#859599;stroke-opacity:1" />
    <polyline
       points="48.52,752.6533 49.88,747.3733 50.6267,742.6133 50.9333,737.7867 50.76,732.3467"
       id="polyline249"
       style="stroke:#859599;stroke-opacity:1" />
    <polyline
       points="53.52,731.3733 54.0,733.4133 54.08,735.8133"
       id="polyline250"
       style="stroke:#859599;stroke-opacity:1" />
    <polyline
       points="71.2933,701.5467 73.6533,701.3067 75.6267,700.6933"
       id="polyline251"
       style="stroke:#859599;stroke-opacity:1" />
  </g>
</svg>
